<!-- Generated by IcoMoon.io -->
<svg version="1.1" xmlns="http://www.w3.org/2000/svg" width="16" height="16" viewBox="0 0 16 16">
<title>arrow-circle-right</title>
<path fill="#fff" d="M8 0.64c4.058 0 7.36 3.302 7.36 7.36s-3.303 7.36-7.36 7.36-7.36-3.302-7.36-7.36 3.303-7.36 7.36-7.36zM8 14.431c3.546 0 6.431-2.886 6.431-6.432s-2.885-6.431-6.431-6.431-6.431 2.886-6.431 6.431c0 3.546 2.885 6.431 6.431 6.431zM10.081 5.476l-0.578 0.577 1.323 1.322h-6.429c-0.322 0-0.583 0.261-0.583 0.582s0.261 0.582 0.583 0.582v0h6.509l-1.402 1.402 0.578 0.576 1.85-1.848c0.172-0.172 0.278-0.41 0.278-0.673s-0.107-0.5-0.278-0.673l-1.849-1.848z" />
</svg>
