<!-- Generated by IcoMoon.io -->
<svg version="1.1" xmlns="http://www.w3.org/2000/svg" width="17" height="16" viewBox="0 0 17 16">
<title>calendar</title>
<path fill="#6f6f79" d="M12.923 0c0.339 0 0.616 0.276 0.616 0.616v0.616h2.461c0.68 0 1.231 0.552 1.231 1.231v12.307c0 0.679-0.552 1.231-1.231 1.231h-14.769c-0.679 0-1.231-0.552-1.231-1.231v-12.307c0-0.679 0.551-1.231 1.231-1.231h2.462v-0.616c0-0.34 0.276-0.616 0.615-0.616s0.615 0.276 0.615 0.616v0.616h7.385v-0.616c0-0.34 0.275-0.616 0.616-0.616zM16 7.385h-14.769v6.769c0 0.302 0.218 0.554 0.504 0.605l0.111 0.010h13.539c0.302 0 0.554-0.218 0.605-0.505l0.010-0.111v-6.769zM3.692 2.462h-1.846c-0.301 0-0.554 0.218-0.606 0.505l-0.010 0.111v3.077h14.769v-3.077c0-0.34-0.275-0.615-0.616-0.615h-1.846v1.846c0 0.34-0.275 0.615-0.616 0.615s-0.616-0.276-0.616-0.615v-1.846h-7.385v1.846c0 0.34-0.276 0.615-0.615 0.615s-0.615-0.276-0.615-0.615v-1.846z" />
</svg>
