<!-- Generated by IcoMoon.io -->
<svg version="1.1" xmlns="http://www.w3.org/2000/svg" width="16" height="16" viewBox="0 0 16 16">
<title>new-chat</title>
<path fill="#1677ff" d="M8 0c4.418 0 8 3.582 8 8s-3.582 8-8 8c-4.418 0-8-3.582-8-8s3.582-8 8-8z"></path>
<path fill="#fff" d="M8.533 5.6v0.533h-2.667v3.569l0.47-0.369h3.797v-1.867h0.533v2.133c0 0.147-0.119 0.267-0.267 0.267h-3.879l-1.188 0.933v-4.933c0-0.147 0.119-0.267 0.267-0.267h2.933zM9.867 5.6v-0.8h0.533v0.8h0.8v0.533h-0.8v0.8h-0.533v-0.8h-0.8v-0.533h0.8z"></path>
</svg>
