<!-- Generated by IcoMoon.io -->
<svg version="1.1" xmlns="http://www.w3.org/2000/svg" width="16" height="16" viewBox="0 0 16 16">
<title>clear</title>
<path fill="#7f7f7f" d="M12.5 14.667h-9c-1.2 0-2.167-0.967-2.167-2.167v-9c0-1.2 0.967-2.167 2.167-2.167h8.967c1.2 0 2.167 0.967 2.167 2.167v8.967c0.033 1.233-0.933 2.2-2.133 2.2zM3.5 2.333c-0.633 0-1.167 0.533-1.167 1.167v8.967c0 0.633 0.533 1.167 1.167 1.167h8.967c0.633 0 1.167-0.533 1.167-1.167v-8.967c0.033-0.633-0.5-1.167-1.133-1.167h-9z"></path>
<path fill="#7f7f7f" d="M9.667 14.167c-0.267 0-0.5-0.233-0.5-0.5v-2.333c0-1.2 0.967-2.167 2.167-2.167h2.333c0.267 0 0.5 0.233 0.5 0.5s-0.233 0.5-0.5 0.5h-2.333c-0.633 0-1.167 0.533-1.167 1.167v2.333c0 0.267-0.233 0.5-0.5 0.5zM7.767 8.3c-0.133 0-0.267-0.067-0.367-0.133l-3.7-3.733c-0.2-0.2-0.2-0.5 0-0.7s0.5-0.2 0.7 0l3.7 3.7c0.2 0.2 0.2 0.5 0 0.7-0.1 0.1-0.2 0.167-0.333 0.167z"></path>
<path fill="#7f7f7f" d="M7.7 8.6h-2.233c-0.267 0-0.5-0.233-0.5-0.5s0.233-0.5 0.5-0.5h2.067v-2.067c0-0.267 0.233-0.5 0.5-0.5s0.5 0.233 0.5 0.5v2.233c0 0.433-0.367 0.833-0.833 0.833z"></path>
</svg>
