<!-- Generated by IcoMoon.io -->
<svg version="1.1" xmlns="http://www.w3.org/2000/svg" width="16" height="16" viewBox="0 0 16 16">
<title>chat-copy</title>
<path fill="#bcd1e9" d="M4.667 4v-2c0-0.368 0.298-0.667 0.667-0.667h8c0.368 0 0.667 0.298 0.667 0.667v9.333c0 0.368-0.298 0.667-0.667 0.667h-2v1.999c0 0.369-0.3 0.667-0.671 0.667h-7.991c-0.371 0-0.671-0.296-0.671-0.667l0.002-9.332c0-0.369 0.3-0.667 0.671-0.667h1.994zM3.335 5.333l-0.001 8h6.666v-8h-6.665zM6 4h5.333v6.667h1.333v-8h-6.667v1.333z"></path>
</svg>
