<!-- Generated by IcoMoon.io -->
<svg version="1.1" xmlns="http://www.w3.org/2000/svg" width="17" height="16" viewBox="0 0 17 16">
<title>clock-gray</title>
<path fill="#888" d="M8.014 0c4.418 0 8.014 3.589 8.014 8s-3.596 8-8.014 8c-4.418 0-8.014-3.589-8.014-8s3.596-8 8.015-8zM8.014 15.035c3.885 0 7.047-3.155 7.047-7.035s-3.162-7.035-7.047-7.035c-3.885 0-7.047 3.155-7.047 7.035s3.162 7.035 7.047 7.035zM8.271 8.608v-4.069c0-0.267-0.216-0.484-0.484-0.484s-0.484 0.216-0.484 0.484v0 4.508l3.197 2.777c0.084 0.075 0.195 0.12 0.318 0.12 0.146 0 0.275-0.065 0.364-0.166l0.001-0.001c0.073-0.084 0.118-0.195 0.118-0.316 0-0.145-0.064-0.275-0.166-0.364l-0.001-0.001-2.864-2.489z" />
</svg>
