<!-- Generated by IcoMoon.io -->
<svg version="1.1" xmlns="http://www.w3.org/2000/svg" width="16" height="16" viewBox="0 0 16 16">
<title>clock</title>
<path d="M8 0c4.41 0 8 3.589 8 8s-3.59 8-8 8-8-3.589-8-8 3.59-8 8-8zM8 15.035c3.879 0 7.035-3.155 7.035-7.035s-3.156-7.035-7.035-7.035-7.035 3.155-7.035 7.035 3.156 7.035 7.035 7.035zM8.256 8.608v-4.069c-0.010-0.258-0.223-0.465-0.482-0.465s-0.473 0.206-0.482 0.463v4.51l3.191 2.777c0.084 0.075 0.195 0.12 0.317 0.12 0.145 0 0.275-0.065 0.363-0.166l0.001-0.001c0.073-0.084 0.118-0.195 0.118-0.316 0-0.145-0.064-0.275-0.165-0.364l-0.001-0.001-2.86-2.489z" />
</svg>
