<!-- Generated by IcoMoon.io -->
<svg version="1.1" xmlns="http://www.w3.org/2000/svg" width="16" height="16" viewBox="0 0 16 16">
<title>description</title>
<path d="M12.893 0.64c0.508 0 0.918 0.411 0.919 0.919v7.099l-3.606 3.606h-7.1c-0.506-0.001-0.917-0.412-0.918-0.918v-9.787c0-0.507 0.412-0.919 0.918-0.919h9.787zM3.035 11.346c0 0.039 0.032 0.070 0.071 0.070h6.5v-3.357h3.359v-6.5c-0.001-0.039-0.033-0.070-0.072-0.070 0 0 0 0 0 0h-9.787c-0.038 0.001-0.069 0.032-0.070 0.070v9.788zM12.365 8.906h-1.91v1.911l1.91-1.91zM12.119 13.313v-1.486h0.848v1.91c0 0.234-0.19 0.424-0.423 0.424h-9.178v-0.848h8.753zM3.954 15.36v-0.589h7.757v0.589h-7.757z" />
</svg>
