<!-- Generated by IcoMoon.io -->
<svg version="1.1" xmlns="http://www.w3.org/2000/svg" width="16" height="16" viewBox="0 0 16 16">
<title>done</title>
<path fill="#006200" d="M8 0.64c4.058 0 7.36 3.303 7.36 7.36s-3.303 7.36-7.36 7.36-7.36-3.303-7.36-7.36 3.303-7.36 7.36-7.36zM10.992 5.75l-4.135 4.137-1.849-1.849c-0.109-0.1-0.256-0.162-0.417-0.162-0.342 0-0.619 0.277-0.619 0.62 0 0.161 0.062 0.308 0.163 0.418l2.286 2.287c0.112 0.112 0.267 0.181 0.438 0.181s0.325-0.069 0.438-0.181l4.573-4.574c0.112-0.112 0.181-0.267 0.181-0.438 0-0.342-0.277-0.62-0.62-0.62-0.171 0-0.326 0.069-0.438 0.181v0z" />
</svg>
