<!-- Generated by IcoMoon.io -->
<svg version="1.1" xmlns="http://www.w3.org/2000/svg" width="16" height="16" viewBox="0 0 16 16">
<title>download</title>
<path fill="#fff" d="M8 11.058c-0 0-0.001 0-0.001 0-0.128 0-0.245-0.053-0.329-0.137l-3.208-3.207 0.659-0.659 2.412 2.411v-7.49h0.932v7.492l2.413-2.412 0.659 0.659-3.208 3.207c-0.084 0.085-0.2 0.137-0.329 0.137 0 0-0.001 0-0.001 0v0zM14.428 6.574h0.932v6.365c0 0.598-0.486 1.085-1.085 1.085h-12.549c-0.599 0-1.085-0.486-1.085-1.085v-6.365h0.932v6.365c0 0.084 0.069 0.152 0.153 0.152h12.549c0 0 0.001 0 0.001 0 0.085 0 0.153-0.069 0.153-0.153 0 0 0 0 0 0v0-6.365z" />
</svg>
