<!-- Generated by IcoMoon.io -->
<svg version="1.1" xmlns="http://www.w3.org/2000/svg" width="14" height="16" viewBox="0 0 14 16">
<title>edit-icon</title>
<path fill="#1677ff" d="M0.698 13.139c-0.171-0.169-0.278-0.404-0.278-0.663 0-0.088 0.013-0.174 0.035-0.255l-0.002 0.007 0.994-3.705 7.557-7.545c0.21-0.209 0.498-0.337 0.818-0.337s0.608 0.129 0.818 0.337v0l2.239 2.236c0.45 0.45 0.45 1.182 0 1.632l-7.556 7.545-3.712 0.993c-0.074 0.021-0.159 0.034-0.248 0.034-0.26 0-0.496-0.106-0.665-0.277v0zM2.14 9.736l-0.72 2.681 2.686-0.719-1.966-1.962zM7.735 3.633l-5.158 5.15 2.483 2.48 5.159-5.15-2.484-2.48zM9.7 1.672l-1.27 1.267 2.484 2.48 1.27-1.268c0.031-0.032 0.050-0.074 0.050-0.122s-0.019-0.091-0.050-0.122v0l-2.24-2.235c-0.031-0.032-0.075-0.051-0.122-0.051s-0.091 0.020-0.122 0.051v0zM13.217 14.378c0.009-0.001 0.021-0.001 0.031-0.001 0.271 0 0.492 0.22 0.492 0.492s-0.22 0.492-0.492 0.492c-0.011 0-0.022-0.001-0.033-0.001h-12.092c-0.271 0-0.491-0.22-0.491-0.491s0.22-0.491 0.491-0.491h12.094z" />
</svg>
