<!-- Generated by IcoMoon.io -->
<svg version="1.1" xmlns="http://www.w3.org/2000/svg" width="16" height="16" viewBox="0 0 16 16">
<title>edit-icon-white</title>
<path fill="#fff" d="M2.917 12.111c-0.137-0.136-0.222-0.323-0.222-0.531 0-0.070 0.010-0.139 0.028-0.204l-0.002 0.005 0.795-2.964 6.045-6.036c0.168-0.167 0.399-0.269 0.654-0.269s0.486 0.103 0.654 0.269v0l1.791 1.789c0.36 0.36 0.36 0.946 0 1.306l-6.045 6.036-2.97 0.794c-0.059 0.017-0.127 0.027-0.198 0.027-0.208 0-0.397-0.085-0.533-0.222v0zM4.071 9.389l-0.576 2.145 2.149-0.575-1.573-1.569zM8.546 4.506l-4.127 4.12 1.986 1.984 4.127-4.12-1.987-1.984zM10.118 2.938l-1.016 1.014 1.987 1.984 1.016-1.014c0.025-0.025 0.040-0.059 0.040-0.098s-0.015-0.072-0.040-0.098v0l-1.792-1.788c-0.025-0.025-0.059-0.041-0.098-0.041s-0.072 0.015-0.098 0.041v0zM12.932 13.102c0.008-0.001 0.016-0.001 0.025-0.001 0.217 0 0.393 0.176 0.393 0.393s-0.176 0.393-0.393 0.393c-0.009 0-0.018-0.001-0.027-0.001h-9.674c-0.217 0-0.393-0.176-0.393-0.393s0.176-0.393 0.393-0.393h9.675z" />
</svg>
