<!-- Generated by IcoMoon.io -->
<svg version="1.1" xmlns="http://www.w3.org/2000/svg" width="16" height="16" viewBox="0 0 16 16">
<title>error-circle</title>
<path fill="#d51f31" d="M8 0.074c4.37 0 7.926 3.555 7.926 7.926s-3.556 7.926-7.926 7.926c-4.37 0-7.926-3.556-7.926-7.926s3.555-7.926 7.926-7.926zM8 14.925c3.819 0 6.925-3.107 6.925-6.926s-3.107-6.926-6.926-6.926c-3.819 0-6.926 3.107-6.926 6.926s3.107 6.926 6.926 6.926zM10.967 5.032c0.121 0.12 0.196 0.287 0.196 0.471s-0.075 0.351-0.195 0.471l-2.024 2.025 2.024 2.024c0.121 0.12 0.197 0.288 0.197 0.473 0 0.367-0.298 0.666-0.666 0.666-0.001 0-0.002 0-0.002 0v0c-0.171 0-0.341-0.065-0.472-0.195l-2.024-2.024-2.024 2.024c-0.12 0.121-0.287 0.195-0.471 0.195-0 0-0 0-0.001 0v0c-0 0-0.002 0-0.003 0-0.367 0-0.666-0.298-0.666-0.666 0-0.185 0.075-0.352 0.197-0.473l2.024-2.024-2.024-2.024c-0.12-0.12-0.195-0.287-0.195-0.471 0-0.368 0.298-0.667 0.667-0.667 0.184 0 0.351 0.074 0.471 0.195v0l2.024 2.024 2.024-2.024c0.12-0.121 0.287-0.196 0.472-0.196s0.351 0.074 0.472 0.196v0z" />
</svg>
