<!-- Generated by IcoMoon.io -->
<svg version="1.1" xmlns="http://www.w3.org/2000/svg" width="19" height="16" viewBox="0 0 19 16">
<title>error</title>
<path fill="#d51f31" d="M9.595 8.241v3.791h1.029c0.2 0 0.364 0.163 0.364 0.364 0 0.202-0.163 0.364-0.364 0.364h-2.787c-0.096 0-0.189-0.039-0.258-0.107s-0.106-0.161-0.106-0.258c0-0.2 0.163-0.364 0.364-0.364h1.029v-3.063h-0.665c-0.2 0-0.364-0.163-0.364-0.364s0.164-0.364 0.364-0.364h1.393zM8.861 6.173h0.352c0.211 0 0.383 0.171 0.383 0.381v0.353c0 0.211-0.171 0.381-0.383 0.381h-0.352c-0.101 0-0.198-0.040-0.27-0.112s-0.112-0.169-0.111-0.27v-0.353c0-0.211 0.17-0.382 0.382-0.382zM1.702 14.782l7.53-13.040 7.528 13.040h-15.057zM18.172 15.054l-8.47-14.671c-0.194-0.336-0.747-0.336-0.941 0l-8.47 14.671c-0.098 0.168-0.098 0.376 0 0.543 0.097 0.168 0.276 0.271 0.47 0.271h16.94c0.194 0 0.374-0.104 0.471-0.271s0.096-0.376 0-0.543z" />
</svg>
