<!-- Generated by IcoMoon.io -->
<svg version="1.1" xmlns="http://www.w3.org/2000/svg" width="16" height="16" viewBox="0 0 16 16">
<title>export</title>
<path fill="#fff" d="M7.534 3.333l-2.413 2.413-0.659-0.659 3.209-3.207c0.085-0.085 0.201-0.137 0.329-0.137s0.245 0.052 0.329 0.137l3.207 3.208-0.659 0.659-2.412-2.413v7.492h-0.933v-7.492zM14.428 6.808h0.932v6.365c0 0.598-0.486 1.085-1.085 1.085h-12.549c-0.599 0-1.085-0.486-1.085-1.084v-6.366h0.932v6.366c0 0.083 0.068 0.152 0.153 0.152h12.549c0 0 0.001 0 0.001 0 0.085 0 0.153-0.069 0.153-0.153 0 0 0-0.001 0-0.001v0-6.364z" />
</svg>
