<!-- Generated by IcoMoon.io -->
<svg version="1.1" xmlns="http://www.w3.org/2000/svg" width="16" height="16" viewBox="0 0 16 16">
<title>file-empty</title>
<path fill="#1677ff" d="M14.234 5.054v9.232c0 0.592-0.482 1.075-1.075 1.075h-10.319c-0.593 0-1.075-0.482-1.075-1.075v-12.57c0-0.593 0.482-1.075 1.075-1.075h7.146l4.248 4.414zM13.334 14.286v-8.331h-3.174c-0.593 0-1.075-0.482-1.075-1.075v-3.339h-6.245c-0.096 0-0.174 0.078-0.174 0.175v12.571c0 0.095 0.078 0.174 0.174 0.174h10.319c0.096 0 0.174-0.078 0.175-0.174zM9.986 1.939v2.941c0 0.096 0.078 0.174 0.175 0.174h2.824l-2.998-3.115z" />
</svg>
