<!-- Generated by IcoMoon.io -->
<svg version="1.1" xmlns="http://www.w3.org/2000/svg" width="14" height="16" viewBox="0 0 14 16">
<title>file-error</title>
<path fill="#1677ff" d="M13.316 4.857v9.847c0 0.632-0.514 1.146-1.146 1.146h-11.007c-0.632 0-1.147-0.514-1.147-1.146v-13.409c0-0.632 0.514-1.147 1.147-1.147h7.622l4.532 4.708zM12.355 14.704v-8.886h-3.385c-0.633 0-1.146-0.514-1.146-1.146v-3.562h-6.66c-0.103 0-0.186 0.083-0.186 0.186v13.409c0 0.102 0.083 0.185 0.186 0.185h11.007c0.102 0 0.185-0.082 0.186-0.185zM4.017 7.082c0.442 0 0.8 0.358 0.8 0.8s-0.358 0.8-0.8 0.8-0.8-0.358-0.8-0.8 0.358-0.8 0.8-0.8zM7.75 7.082c0.442 0 0.8 0.358 0.8 0.8s-0.358 0.8-0.8 0.8-0.8-0.358-0.8-0.8 0.358-0.8 0.8-0.8zM8.785 1.535l3.198 3.322h-3.012c-0.102 0-0.185-0.083-0.186-0.186v-3.136zM6.056 10.666c0.846 0 1.56 0.562 1.79 1.334h-0.567c-0.205-0.471-0.676-0.8-1.223-0.8s-1.017 0.329-1.223 0.8h-0.567c0.229-0.771 0.944-1.334 1.79-1.334z" />
</svg>
