<!-- Generated by IcoMoon.io -->
<svg version="1.1" xmlns="http://www.w3.org/2000/svg" width="14" height="16" viewBox="0 0 14 16">
<title>file-icon</title>
<path fill="#1677ff" d="M13.316 4.857v9.847c0 0.632-0.514 1.146-1.146 1.146h-11.007c-0.632 0-1.147-0.514-1.147-1.146v-13.409c0-0.632 0.514-1.147 1.147-1.147h7.622l4.532 4.708zM12.355 14.704v-8.886h-3.385c-0.633 0-1.146-0.514-1.146-1.146v-3.562h-6.66c-0.103 0-0.186 0.083-0.186 0.186v13.409c0 0.102 0.083 0.185 0.186 0.185h11.007c0.102 0 0.185-0.082 0.186-0.185zM8.785 1.535v3.137c0 0.103 0.083 0.186 0.186 0.186h3.012l-3.198-3.322z" />
<path fill="#1677ff" d="M3.466 8.267h6.4v1.066h-6.4zM3.466 10.934h6.4v1.066h-6.4z" />
</svg>
