<!-- Generated by IcoMoon.io -->
<svg version="1.1" xmlns="http://www.w3.org/2000/svg" width="15" height="16" viewBox="0 0 15 16">
<title>icon-model</title>
<path fill="#dcddde" d="M4.442 7.79c0 0.6-0.485 1.087-1.082 1.087s-1.082-0.486-1.082-1.086c0-0.599 0.485-1.085 1.082-1.085s1.082 0.487 1.082 1.085zM10.424 13.371c0 0.6-0.485 1.085-1.082 1.085s-1.082-0.486-1.082-1.085c0-0.6 0.484-1.085 1.082-1.085s1.082 0.486 1.082 1.085zM11.373 5.067c0 0.599-0.485 1.085-1.082 1.085s-1.082-0.487-1.082-1.085c0-0.599 0.485-1.087 1.082-1.087s1.082 0.487 1.082 1.087zM1.481 2.877c0 0.99-1.481 0.99-1.481 0s1.481-0.991 1.481 0zM9.341 0.647c0 0.737-1.101 0.737-1.101 0s1.101-0.736 1.101 0zM6.019 3.047c0 0.736-1.101 0.736-1.101 0s1.101-0.736 1.101 0zM14.98 5.867c0 0.99-1.48 0.99-1.48 0s1.48-0.99 1.48 0zM14.905 14.171c0 0.736-1.101 0.736-1.101 0s1.101-0.736 1.101 0zM9.095 7.886c-0.322-0.895-1.31-1.333-2.203-1.010s-1.329 1.314-1.006 2.21c0.322 0.895 1.31 1.333 2.203 1.010s1.33-1.334 1.006-2.21zM7.728 9.143c-0.361 0.133-0.76-0.057-0.893-0.419s0.057-0.762 0.417-0.895c0.361-0.133 0.759 0.058 0.892 0.419 0.133 0.343-0.056 0.762-0.418 0.895zM12.341 9.181c0 0.991-1.481 0.991-1.481 0s1.481-0.991 1.481 0zM7.101 5.428c0 0.99-1.481 0.99-1.481 0s1.481-0.99 1.481 0zM5.526 11.752c0 0.991-1.481 0.991-1.481 0s1.481-0.991 1.481 0zM7.101 15.219c0 0.991-1.481 0.991-1.481 0s1.481-0.991 1.481 0zM8.829 7.143l0.797-0.971c-0.114-0.058-0.209-0.152-0.285-0.248l-0.797 0.971c0.114 0.077 0.209 0.152 0.285 0.248zM6.702 6.305c-0.057 0.019-0.133 0.038-0.209 0.058l0.152 0.419c0.057-0.019 0.114-0.058 0.17-0.076 0.057-0.019 0.114-0.038 0.19-0.058l-0.152-0.401c-0.056 0.019-0.114 0.038-0.152 0.058zM6.152 9.829l-0.912 1.123c0.114 0.057 0.209 0.133 0.285 0.248l0.93-1.123c-0.132-0.076-0.227-0.172-0.303-0.248zM10.747 8.838l-1.348-0.229c0 0.133-0.038 0.248-0.057 0.381l1.348 0.229c-0.019-0.133 0-0.267 0.057-0.381zM11.563 5.258c0 0.076-0.019 0.133-0.037 0.171l1.803 0.401c0-0.058 0.020-0.133 0.020-0.191l-1.786-0.381z" />
<path fill="#dcddde" d="M8.791 1.391c-0.152 0-0.304-0.038-0.418-0.133l-1.652 3.314c0.057 0.019 0.114 0.058 0.17 0.096l1.576-3.123-0.607 3.695-0.55 0.058c0.019 0.058 0.019 0.133 0.019 0.191l0.513-0.058-0.19 1.162c0.133 0 0.247 0.038 0.38 0.058l0.209-1.258 0.854-0.095c-0.020-0.058-0.020-0.133-0.020-0.191l-0.797 0.076 0.627-3.809c-0.076 0.020-0.095 0.020-0.114 0.020v0zM6.038 4.572c0.019-0.019 0.057-0.019 0.075-0.019l-0.304-0.838c-0.019 0.019-0.038 0.019-0.075 0.038s-0.075 0.019-0.114 0.038l0.304 0.838c0.057-0.037 0.077-0.056 0.114-0.056zM13.367 6.191c-0.019-0.038-0.019-0.076-0.038-0.114l-2.373 0.895-0.227-0.705c-0.057 0.019-0.114 0.038-0.19 0.058l0.247 0.724-1.595 0.609c0.020 0.058 0.057 0.114 0.075 0.171 0.020 0.058 0.038 0.114 0.057 0.191l1.576-0.591 0.304 0.933c0.020 0 0.038-0.020 0.057-0.020 0.038-0.020 0.075-0.020 0.133-0.038l-0.304-0.933 2.411-0.915c-0.039-0.095-0.095-0.19-0.133-0.266zM5.127 12.629l0.779 1.771c0.038-0.020 0.075-0.038 0.133-0.057 0.019 0 0.038 0 0.038-0.020l-0.779-1.79c-0.056 0.038-0.114 0.076-0.17 0.095zM9.246 1.218l4.234 4.114c0.038-0.058 0.075-0.095 0.114-0.152l-4.215-4.096c-0.034 0.054-0.079 0.099-0.131 0.133l-0.002 0.001zM4.747 3.123v-0.191l-3.095-0.115v0.191zM8.145 10.267c-0.057 0.020-0.114 0.038-0.19 0.057l0.721 1.943c0.114-0.057 0.228-0.114 0.361-0.133l-0.722-1.942c-0.037 0.020-0.095 0.057-0.171 0.076zM4.424 10.915c0.019 0 0.019-0.020 0.038-0.020 0.057-0.020 0.095-0.038 0.152-0.038l-0.361-0.953 1.538-0.572c-0.019-0.057-0.057-0.114-0.075-0.171-0.016-0.045-0.037-0.108-0.053-0.173l-0.004-0.017-1.538 0.572-0.209-0.591c-0.057 0.020-0.114 0.057-0.171 0.057l0.228 0.591-2.639 0.991c0.038 0.057 0.075 0.114 0.095 0.171s0.038 0.133 0.038 0.191l2.601-0.972 0.361 0.934zM9.798 3.885c0.057-0.019 0.114-0.038 0.171-0.058l-0.854-2.514c-0.020 0.020-0.038 0.020-0.075 0.038-0.038 0.020-0.075 0.020-0.114 0.038l0.873 2.495zM4.577 8.191l1.006 0.171c0-0.133 0.038-0.248 0.057-0.381l-0.988-0.171c0 0.058 0 0.133-0.019 0.191-0.019 0.076-0.038 0.134-0.056 0.19zM14.241 6.8h-0.075l0.075 6.628h0.19l-0.076-6.647c-0.039 0-0.076 0.019-0.114 0.019v0zM6.133 2.686l2.126-1.524c-0.038-0.038-0.075-0.095-0.114-0.153l-2.127 1.524c0.038 0.038 0.077 0.095 0.114 0.152zM1.614 2.552c0.019 0.058 0.038 0.115 0.038 0.171l6.455-1.79s0-0.019-0.020-0.019c-0.020-0.057-0.038-0.096-0.038-0.152l-6.436 1.791c-0.020 0-0.020 0 0 0zM14.031 13.505l-1.918-3.562c-0.057 0.038-0.114 0.057-0.171 0.095l1.861 3.448-3.057-2.534 0.494-0.915c-0.057-0.020-0.114-0.057-0.171-0.095l-0.475 0.877-1.539-1.276c-0.075 0.114-0.152 0.21-0.247 0.286l1.595 1.334-0.569 1.047c0.057 0.020 0.114 0.057 0.171 0.095l0.55-1.010 3.114 2.552c0.075-0.152 0.209-0.286 0.361-0.343h0.001zM0.74 10.267h0.095v-6.476h-0.19v6.476c0.019 0.020 0.057 0 0.095 0zM13.614 14.133l-6.361 0.857c0.019 0.057 0.019 0.133 0.019 0.191l6.342-0.857c0-0.057-0.018-0.114 0-0.191zM5.677 14.591l-4.291-3.2c-0.038 0.057-0.075 0.114-0.114 0.152l4.292 3.2c0.019-0.057 0.057-0.114 0.114-0.152zM13.652 13.886l-3.039-0.476c0 0.057 0 0.114-0.019 0.171v0.020l3.018 0.476c0.001-0.056 0.020-0.114 0.039-0.191zM12.114 8.4c0.057 0.038 0.095 0.076 0.152 0.114l1.519-1.867c-0.057-0.038-0.114-0.076-0.152-0.114l-1.519 1.867zM1.272 10.514l1.367-1.677c-0.057-0.038-0.095-0.076-0.152-0.114l-1.367 1.677c0.057 0.020 0.115 0.057 0.152 0.114zM2.678 6.705c0.057-0.038 0.114-0.057 0.171-0.095l-1.595-2.971c-0.057 0.038-0.114 0.057-0.171 0.095l1.595 2.972zM4.33 6.933c0.038 0.038 0.057 0.076 0.095 0.114 0.019 0.019 0.019 0.019 0.019 0.038l0.55-0.439 0.912 0.762c0.075-0.114 0.152-0.21 0.247-0.285l-0.854-0.705 0.418-0.324c-0.038-0.038-0.075-0.095-0.114-0.152l-0.455 0.343-3.456-2.857 3.797 1.752c0.019-0.038 0.019-0.076 0.038-0.133 0-0.019 0.019-0.038 0.038-0.058l-3.95-1.809c-0.057 0.171-0.152 0.305-0.304 0.419l3.532 2.933-0.512 0.401zM8.165 13.905l-1.101 0.724c0.038 0.057 0.075 0.095 0.095 0.152l1.082-0.704c-0.018-0.057-0.038-0.114-0.075-0.172zM3.873 11.657c0-0.057 0.019-0.133 0.038-0.191l-2.43-0.419c0 0.057-0.019 0.133-0.038 0.191l2.43 0.419zM6.361 14.286c0.114 0 0.228 0.020 0.342 0.076l0.285-1.733 1.12 0.419c0.019-0.057 0.038-0.114 0.057-0.171l-1.139-0.457 0.342-2.038c-0.133 0-0.247-0.038-0.38-0.057l-0.342 1.962-0.949-0.361c-0.019 0.057-0.038 0.133-0.057 0.191l0.987 0.361-0.303 1.809h0.037zM1.292 11.028c0 0.736-1.101 0.736-1.101 0s1.101-0.736 1.101 0z" />
</svg>
