<!-- Generated by IcoMoon.io -->
<svg version="1.1" xmlns="http://www.w3.org/2000/svg" width="14" height="16" viewBox="0 0 14 16">
<title>icon-excel</title>
<path fill="#649f29" d="M12.519 5.642h-2.216v1.4h2.216v-1.4zM12.519 7.374h-2.216v1.4h2.216v-1.4zM12.519 3.874h-2.216v1.4h2.216v-1.4zM12.519 10.837h-2.216v1.4h2.216v-1.4zM13.553 2.474h-5.576v-1.474l-7.977 1.584v10.832l7.977 1.584v-1.437c0.073 0.037 0.11 0.037 0.184 0.037h5.355c0.258 0 0.48-0.221 0.48-0.516v-10.094c0.037-0.331-0.185-0.515-0.443-0.515zM5.355 10.358l-0.96-0.074-0.74-1.842-0.775 1.695-0.923-0.074 1.145-2.063-1.034-2.284 0.923-0.074 0.628 1.695h0.11l0.666-1.842 0.96-0.074-1.219 2.395c0 0.11 1.219 2.542 1.219 2.542zM13.405 12.974h-5.428v-0.774h1.81v-1.4h-1.81v-0.295h1.81v-1.4h-1.81v-0.368h1.81v-1.4h-1.81v-0.369h1.81v-1.4h-1.81v-0.368h1.81v-1.4h-1.81v-0.774h5.428v9.948zM12.519 9.142h-2.216v1.4h2.216v-1.4z" />
</svg>
