<!-- Generated by IcoMoon.io -->
<svg version="1.1" xmlns="http://www.w3.org/2000/svg" width="15" height="16" viewBox="0 0 15 16">
<title>icon-cart</title>
<path fill="#bcd1e9" d="M3.902 13.659c0.646 0 1.171 0.524 1.171 1.171s-0.524 1.171-1.171 1.171-1.171-0.524-1.171-1.171 0.524-1.171 1.171-1.171zM13.812 5.854c0.431 0 0.78 0.349 0.78 0.78 0 0.037-0.002 0.073-0.008 0.109l-0.938 6.634c-0.055 0.385-0.384 0.671-0.773 0.671h-1.074c0.185 0.207 0.298 0.481 0.298 0.78 0 0.646-0.524 1.171-1.171 1.171s-1.171-0.524-1.171-1.171c0-0.3 0.113-0.573 0.298-0.78h-4.358c-0.181-0.89-0.968-1.561-1.912-1.561s-1.732 0.671-1.912 1.561h-0.149c-0.389 0-0.718-0.286-0.772-0.671l-0.943-6.634c-0.060-0.426 0.236-0.822 0.663-0.883 0.036-0.005 0.073-0.008 0.11-0.008h13.032zM10.808 12.488c-0.944 0-1.732 0.671-1.912 1.561h1.159c0.214-0.239 0.525-0.39 0.872-0.39s0.658 0.15 0.872 0.39h0.921c-0.181-0.89-0.968-1.561-1.912-1.561zM10.313 8.195h-5.8c-0.066 0-0.128 0.030-0.17 0.079-0.069 0.083-0.067 0.203 0 0.283l0.029 0.028 0.361 0.3c0.056 0.047 0.123 0.076 0.195 0.086l0.054 0.004h4.856c0.072 0 0.143-0.020 0.204-0.057l0.044-0.031 0.367-0.302c0.050-0.042 0.080-0.104 0.080-0.17 0-0.121-0.098-0.22-0.22-0.22zM2.402 3.021c0.009 0.008 0.017 0.015 0.024 0.024l1.264 1.373c0.146 0.159 0.135 0.405-0.023 0.551-0.072 0.067-0.166 0.103-0.264 0.103h-2.518c-0.216 0-0.39-0.175-0.39-0.39 0-0.098 0.036-0.191 0.102-0.263l1.254-1.373c0.145-0.159 0.392-0.171 0.551-0.026zM5.915 3.021c0.008 0.008 0.016 0.015 0.024 0.024l1.264 1.373c0.146 0.159 0.136 0.405-0.023 0.551-0.072 0.067-0.166 0.103-0.264 0.103h-2.519c-0.215 0-0.39-0.175-0.39-0.39 0-0.098 0.037-0.191 0.102-0.263l1.255-1.373c0.145-0.159 0.392-0.171 0.551-0.026zM9.427 3.021c0.008 0.008 0.017 0.015 0.024 0.024l1.264 1.373c0.146 0.159 0.136 0.405-0.023 0.551-0.072 0.067-0.166 0.103-0.264 0.103h-2.518c-0.215 0-0.39-0.175-0.39-0.39 0-0.098 0.037-0.191 0.102-0.263l1.254-1.373c0.145-0.159 0.392-0.171 0.551-0.026zM12.939 3.021c0.008 0.008 0.017 0.015 0.024 0.024l1.264 1.373c0.146 0.159 0.136 0.405-0.023 0.551-0.072 0.067-0.166 0.103-0.264 0.103h-2.518c-0.216 0-0.39-0.175-0.39-0.39 0-0.098 0.037-0.191 0.102-0.263l1.255-1.373c0.145-0.159 0.392-0.171 0.551-0.026zM3.659 0.309c0.166-0.138 0.412-0.115 0.549 0.050l1.115 1.343c0.021 0.026 0.039 0.054 0.053 0.085l0.007 0.017c0.005 0.011 0.008 0.022 0.011 0.033l0.003 0.011c0.003 0.013 0.006 0.026 0.008 0.040 0.003 0.020 0.005 0.042 0.005 0.064l-0.003-0.050c0.002 0.013 0.003 0.026 0.003 0.039v0.012c0 0.017-0.001 0.034-0.003 0.050l0.003-0.050c0 0.020-0.002 0.039-0.004 0.058-0.003 0.015-0.005 0.030-0.010 0.044l-0.003 0.010c-0.004 0.012-0.008 0.024-0.013 0.035l-0.008 0.017c-0.013 0.030-0.032 0.058-0.053 0.084l-0.001 0.001-1.114 1.341c-0.138 0.166-0.384 0.188-0.55 0.050-0.018-0.015-0.035-0.031-0.050-0.050l-1.13-1.351c-0.006-0.006-0.010-0.014-0.015-0.021l0.023 0.031c-0.014-0.017-0.026-0.034-0.037-0.051l-0.011-0.019-0.011-0.026-0.006-0.014c-0.004-0.010-0.007-0.019-0.010-0.029l-0.005-0.018-0.006-0.025-0.003-0.022-0.002-0.021-0.001-0.024c0-0.008 0-0.017 0.001-0.025l0.002-0.021 0.003-0.022 0.006-0.026 0.005-0.018c0.003-0.010 0.006-0.020 0.010-0.030l0.007-0.017 0.010-0.022 0.011-0.020c0.010-0.018 0.022-0.034 0.037-0.050l-0.023 0.030c0.005-0.008 0.010-0.014 0.015-0.021l0.008-0.010 1.123-1.341c0.015-0.018 0.032-0.034 0.050-0.049zM7.171 0.309c0.166-0.138 0.412-0.115 0.55 0.050l1.115 1.343c0.021 0.026 0.039 0.054 0.053 0.085l0.007 0.017c0.005 0.011 0.008 0.022 0.011 0.033l0.004 0.011c0.004 0.013 0.006 0.026 0.008 0.040 0.004 0.020 0.005 0.042 0.005 0.064l-0.003-0.050c0.002 0.013 0.002 0.026 0.003 0.039v0.012c0 0.017-0.001 0.034-0.003 0.050l0.003-0.050c0 0.020-0.002 0.039-0.004 0.058-0.002 0.015-0.005 0.030-0.009 0.044l-0.002 0.010c-0.004 0.012-0.008 0.024-0.012 0.035l-0.008 0.017c-0.014 0.030-0.031 0.058-0.053 0.084l-0.001 0.001-1.114 1.341c-0.138 0.166-0.383 0.188-0.55 0.050-0.018-0.015-0.035-0.031-0.050-0.050l-1.13-1.351c-0.005-0.006-0.011-0.014-0.016-0.021l0.024 0.031c-0.013-0.017-0.026-0.034-0.037-0.051l-0.011-0.019-0.011-0.026-0.006-0.014c-0.004-0.010-0.007-0.019-0.010-0.030l-0.005-0.018-0.005-0.025-0.003-0.022-0.002-0.021-0.001-0.024c0-0.008 0-0.017 0.001-0.025l0.002-0.021 0.003-0.022 0.005-0.026 0.005-0.018c0.003-0.010 0.006-0.020 0.010-0.030l0.007-0.017 0.011-0.022 0.011-0.020c0.011-0.018 0.022-0.034 0.037-0.050l-0.024 0.030c0.005-0.008 0.010-0.014 0.016-0.021l0.008-0.010 1.123-1.341c0.015-0.018 0.032-0.034 0.050-0.049zM10.684 0.309c0.166-0.138 0.412-0.115 0.55 0.050l1.115 1.343c0.021 0.026 0.039 0.054 0.053 0.085l0.007 0.017c0.005 0.011 0.008 0.022 0.011 0.033l0.004 0.011c0.004 0.013 0.006 0.026 0.008 0.040 0.004 0.020 0.005 0.042 0.005 0.064l-0.003-0.050c0.002 0.013 0.002 0.026 0.003 0.039v0.012c0 0.017-0.001 0.034-0.003 0.050l0.003-0.050c0 0.020-0.002 0.039-0.004 0.058-0.002 0.015-0.005 0.030-0.009 0.044l-0.004 0.012c-0.003 0.011-0.007 0.022-0.011 0.033l-0.008 0.017c-0.014 0.030-0.031 0.058-0.053 0.084l-0.001 0.001-1.114 1.341c-0.137 0.166-0.383 0.188-0.55 0.050-0.018-0.015-0.035-0.031-0.050-0.050l-1.13-1.351c-0.005-0.006-0.011-0.014-0.015-0.021l0.024 0.031c-0.014-0.017-0.026-0.034-0.037-0.051l-0.011-0.019-0.011-0.026-0.006-0.014c-0.004-0.010-0.007-0.019-0.010-0.030l-0.005-0.018-0.005-0.025-0.003-0.022-0.002-0.021-0.001-0.024c0-0.008 0-0.017 0.001-0.025l0.002-0.021 0.003-0.022 0.005-0.026 0.005-0.018c0.003-0.010 0.006-0.020 0.010-0.030l0.007-0.017 0.011-0.022 0.011-0.020c0.011-0.018 0.023-0.034 0.037-0.050l-0.024 0.030c0.005-0.008 0.010-0.014 0.015-0.021l0.008-0.010 1.123-1.341c0.015-0.018 0.032-0.034 0.050-0.049z" />
</svg>
