<!-- Generated by IcoMoon.io -->
<svg version="1.1" xmlns="http://www.w3.org/2000/svg" width="14" height="16" viewBox="0 0 14 16">
<title>icon-pdf</title>
<path fill="#dc2e1b" d="M3.396 6.953c-0.050-0.050-0.1-0.1-0.15-0.1h-0.45v1.297h0.45c0.050 0 0.1-0.050 0.15-0.1s0.050-0.1 0.1-0.2 0.050-0.199 0.050-0.349c0-0.15 0-0.25-0.050-0.35s-0.050-0.15-0.1-0.2zM1.548 6.853h-0.45v0.55h0.2c0.15 0 0.25 0 0.3-0.050 0.050 0 0.1-0.050 0.1-0.1 0.050-0.050 0.050-0.1 0.050-0.15s0-0.15-0.050-0.2c-0.050 0-0.1 0-0.15-0.050z" />
<path fill="#e14446" d="M13.934 3.057c0.004-0.022 0.005-0.049 0.005-0.075 0-0.292-0.238-0.53-0.53-0.53-0.026 0-0.052 0.002-0.077 0.006l0.003-0.001c-1.698-0.050-3.396 0-5.094 0v-1.447h-0.9c-2.445 0.45-4.893 0.85-7.341 1.298v11.137c2.447 0.45 4.845 0.85 7.292 1.25h0.999v-1.6h4.744c0.25 0 0.55 0 0.8-0.149 0.2-0.3 0.15-0.65 0.15-0.949-0.050-2.997 0-5.943-0.050-8.94zM2.048 7.402c-0.050 0.1-0.1 0.15-0.15 0.2s-0.1 0.050-0.2 0.1c-0.1 0-0.2 0.050-0.4 0.050h-0.2v0.748h-0.348v-1.947h0.6c0.2 0 0.35 0 0.449 0.050 0.1 0.050 0.2 0.1 0.25 0.2s0.1 0.2 0.1 0.4c-0.050 0.050-0.050 0.15-0.1 0.2zM3.846 7.952c-0.050 0.15-0.1 0.25-0.2 0.35-0.050 0.050-0.15 0.1-0.25 0.15-0.1 0.049-0.2 0.049-0.3 0.049h-0.699v-1.948h0.65c0.15 0 0.25 0 0.35 0.050s0.199 0.1 0.249 0.2c0.1 0.1 0.15 0.2 0.15 0.3 0.050 0.1 0.050 0.3 0.050 0.45 0.050 0.149 0.050 0.249 0 0.399zM5.444 6.852h-0.85v0.45h0.75v0.35h-0.75v0.849h-0.349v-1.948h1.249v0.3h-0.050zM13.435 12.646h-5.244v-3.346c0.15-0.1 0.3-0.3 0.5-0.5 0.649-0.050 1.198 0 1.697 0 0.3 0.25 0.75 0.55 1.050 0.65 0.1 0.050 0.199 0.050 0.299 0s0.15-0.1 0.2-0.2c0.050-0.1 0.050-0.2 0-0.3-0.050-0.15-0.25-0.25-0.6-0.35-0.2-0.050-0.4-0.099-0.699-0.099-0.6-0.7-0.65-1.299-0.65-1.299s0.2-0.3 0.35-0.799c0.1-0.3 0.1-0.549 0-0.699-0.056-0.061-0.122-0.111-0.196-0.148l-0.004-0.002h-0.2c-0.449 0.2-0.349 1.549-0.349 1.599-0.3 0.4-0.599 0.799-0.949 1.148l-0.2 0.2s-0.1 0-0.25 0.050v-5.594h5.245v9.69zM10.089 8.501c-0.45 0-0.85 0-1.099 0.050 0.25-0.25 0.5-0.55 0.7-0.85 0.050 0.25 0.199 0.5 0.399 0.8zM10.089 5.804c0.050 0.050 0.050 0.3 0 0.4-0.050 0.2-0.050 0.25-0.15 0.35-0.050-0.2 0.050-0.65 0.15-0.75zM11.088 8.901h0.1c0.3 0.050 0.449 0.15 0.499 0.2l0.050 0.050h-0.15c-0.15 0-0.3-0.1-0.5-0.25z" />
</svg>
