<!-- Generated by IcoMoon.io -->
<svg version="1.1" xmlns="http://www.w3.org/2000/svg" width="16" height="16" viewBox="0 0 16 16">
<title>icon-factory-gray</title>
<path fill="#dbdbdc" d="M4.404 3.383c-0.032-0.366-0.317-0.66-0.637-0.66h-1.115c-0.317 0-0.605 0.293-0.637 0.66l-0.191 1.723h2.738c-0.032-0.55-0.096-1.1-0.159-1.723zM4.717 5.787h-2.741l-0.151 1.362h3.041c-0.029-0.365-0.090-0.83-0.151-1.361zM3.362 13.617c-0.344 0-0.624 0.335-0.624 0.743v1.299h1.216v-1.299c0.001-0.409-0.28-0.743-0.592-0.743zM3.392 2.383c0.003 0 0.007 0 0.010 0 0.146 0 0.269-0.099 0.305-0.233l0.001-0.002c0.223 0.101 0.508 0 0.635-0.234 0.191 0.134 0.444 0.134 0.667 0 0.667 0.569 1.683 0.101 1.683-0.837 0-1.172-1.524-1.506-1.968-0.403-0.223-0.033-0.571 0.135-0.667 0.502-0.255-0.101-0.603 0.1-0.635 0.468-0.096-0.033-0.381 0.101-0.381 0.369 0 0.203 0.159 0.369 0.349 0.369z" />
<path fill="#dbdbdc" d="M15.515 15.325h-0.213v-7.997c0-0.003 0-0.005 0-0.008 0-0.122-0.059-0.229-0.151-0.295l-0.001-0c-0.042-0.032-0.095-0.051-0.152-0.051s-0.11 0.019-0.152 0.051l0.001-0c-0.498 0.325-1.502 0.918-2.515 1.496l-0.557 0.293v1.485c0.030-0.034 0.061-0.034 0.121-0.034h0.639c0.121 0 0.213 0.101 0.213 0.27v0.709c0 0.136-0.091 0.271-0.213 0.271h-0.639c-0.030 0-0.091 0-0.121-0.034v0.54c0.030-0.034 0.061-0.034 0.121-0.034h0.639c0.121 0 0.213 0.101 0.213 0.237v0.708c0 0.136-0.091 0.237-0.213 0.237h-0.639c-0.030 0-0.091 0-0.121-0.034v0.573c0.030-0.034 0.061-0.034 0.121-0.034h0.639c0.121 0 0.213 0.101 0.213 0.237v0.709c0 0.134-0.091 0.236-0.213 0.236h-0.639c-0.030 0-0.091 0-0.121-0.034v0.439h-0.608v-7.729l0.181-0.101c0.152-0.101 0.213-0.304 0.121-0.439-0.091-0.168-0.274-0.237-0.425-0.135l-5.384 3.172c0.060 0.54 0.181 1.788 0.517 4.656v-0.843c0-0.843 0.638-1.552 1.4-1.552 0.76 0 1.399 0.709 1.399 1.552v1.519h-2.739c-0.030-0.237-0.061-0.438-0.061-0.675v0.675h-0.547c-0.608-5.534-0.608-5.635-0.639-5.736 0-0.067 0-0.135-0.213-1.923h-3.195l-0.821 7.625h-0.457c-0.182 0-0.304 0.135-0.304 0.337s0.121 0.338 0.304 0.338h15.211c0.182 0 0.304-0.135 0.304-0.338 0-0.168-0.121-0.337-0.304-0.337zM13.233 10.534c0-0.134 0.092-0.27 0.213-0.27h0.639c0.121 0 0.213 0.101 0.213 0.27v0.709c0 0.136-0.091 0.271-0.213 0.271h-0.64c-0.121 0-0.213-0.101-0.213-0.271v-0.709zM13.233 12.222c0-0.136 0.092-0.237 0.213-0.237h0.639c0.121 0 0.213 0.101 0.213 0.237v0.709c0 0.134-0.091 0.236-0.213 0.236h-0.64c-0.121 0-0.213-0.101-0.213-0.236v-0.709zM13.233 13.976c0-0.135 0.092-0.237 0.213-0.237h0.639c0.121 0 0.213 0.101 0.213 0.237v0.709c0 0.135-0.091 0.236-0.213 0.236h-0.64c-0.121 0-0.213-0.101-0.213-0.236v-0.709zM2.008 14.009c0-0.742 0.547-1.349 1.216-1.349s1.217 0.608 1.217 1.349v1.316h-2.433v-1.316z" />
<path fill="#dbdbdc" d="M8.213 14.149c0-0.47-0.351-0.873-0.76-0.873s-0.761 0.402-0.761 0.872v1.511h1.521v-1.51z" />
</svg>
