<!-- Generated by IcoMoon.io -->
<svg version="1.1" xmlns="http://www.w3.org/2000/svg" width="14" height="16" viewBox="0 0 14 16">
<title>icon-slide</title>
<path fill="#e14446" d="M8.512 13.201v-1.225h3.976v-0.585h-3.976v-0.941h3.976v-0.602h-3.976v-1.477c0.366 0.368 0.873 0.597 1.433 0.597 0.567 0 1.079-0.233 1.447-0.61l0.001-0.001c0.383-0.388 0.596-0.911 0.592-1.456h-2.040v-2.051c0 0 0 0-0.001 0-0.559 0-1.066 0.228-1.431 0.595v0-2.646h5.488v10.402h-5.488zM10.238 4.5v2.065h2.040c0-0.004 0-0.009 0-0.014 0-1.129-0.912-2.045-2.040-2.051h-0.001zM0 2.512l7.875-1.512v14l-7.875-1.512v-10.976zM2.1 11.076h1.204v-2.1s2.53 0.193 2.737-2.142c0 0 0.101-1.63-1.435-1.893-0.376-0.026-0.814-0.041-1.256-0.041s-0.881 0.015-1.316 0.044l0.059-0.003 0.007 6.135zM4.662 6.95c0.049 1.050-1.453 1.050-1.453 1.050v-2.1c1.019 0.091 1.414 0.21 1.453 1.050z" />
</svg>
