<!-- Generated by IcoMoon.io -->
<svg version="1.1" xmlns="http://www.w3.org/2000/svg" width="16" height="16" viewBox="0 0 16 16">
<title>icon-chart</title>
<path fill="#0066FF" d="M14.476 0c0.842 0 1.524 0.682 1.524 1.524v12.953c0 0.842-0.682 1.524-1.524 1.524h-12.953c-0.842 0-1.524-0.682-1.524-1.524v-12.953c0-0.842 0.682-1.524 1.524-1.524h12.953zM13.257 5.715h-1.143c-0.196 0-0.357 0.147-0.379 0.337l-0.002 0.045v7.238c0 0.195 0.147 0.357 0.336 0.379l0.044 0.002h1.143c0.195 0 0.357-0.147 0.379-0.337l0.002-0.044v-7.238c0-0.21-0.171-0.381-0.381-0.381zM7.162 7.619h-1.143c-0.196 0-0.356 0.147-0.378 0.337l-0.003 0.045v5.334c0 0.195 0.147 0.357 0.337 0.379l0.045 0.002h1.143c0.196 0 0.356-0.147 0.378-0.337l0.003-0.044v-5.334c0-0.21-0.17-0.381-0.381-0.381zM10.21 10.286h-1.143c-0.196 0-0.357 0.147-0.379 0.336l-0.002 0.044v2.666c0 0.195 0.147 0.357 0.336 0.379l0.044 0.002h1.143c0.195 0 0.357-0.147 0.379-0.337l0.002-0.044v-2.666c0-0.21-0.171-0.381-0.381-0.381zM4.114 9.524h-1.143c-0.196 0-0.357 0.147-0.378 0.336l-0.002 0.044v3.428c0 0.195 0.147 0.357 0.337 0.379l0.045 0.002h1.143c0.196 0 0.356-0.147 0.378-0.337l0.003-0.044v-3.428c0-0.21-0.17-0.381-0.381-0.381zM13.401 2.008c-0.146-0.137-0.375-0.137-0.522 0l-3.301 3.102-2.769-2.603c-0.146-0.138-0.375-0.138-0.522 0l-0.449 0.422-3.653 3.32c-0.147 0.151-0.144 0.392 0.006 0.538l0.196 0.192c0.144 0.141 0.373 0.145 0.522 0.010l3.647-3.3 2.765 2.591c0.147 0.138 0.377 0.137 0.523-0.002l-0.003 0.002-0.014 0.013 0.023-0.017 0.023-0.019 3.746-3.521c0.145-0.153 0.137-0.394-0.017-0.538z" />
</svg>
