<!-- Generated by IcoMoon.io -->
<svg version="1.1" xmlns="http://www.w3.org/2000/svg" width="14" height="16" viewBox="0 0 14 16">
<title>icon-word</title>
<path fill="#1677ff" d="M8.052 12.388h5.948v-9.63l-6-0.005v0.877h5v0.876h-5v0.877h5v0.876h-5v0.877h5v0.876l-4.948 0.065-0.052 0.812h5v0.876h-5v0.877h5v0.876h-5l0.052 0.87zM0 2.444v10.698l8 1.444v-13.586l-8 1.444zM5.713 10.105h-1.153l-0.738-3.163-0.927 3.163h-0.793l-1.136-4.663h1.134l0.454 2.906 0.755-3.202h1.192l0.642 3.497 0.684-3.497h1.135l-1.25 4.96z" />
</svg>
