<!-- Generated by IcoMoon.io -->
<svg version="1.1" xmlns="http://www.w3.org/2000/svg" width="16" height="16" viewBox="0 0 16 16">
<title>icon-coal</title>
<path fill="#bcd1e9" d="M4.87 13.913c0.577 0 1.043 0.467 1.043 1.043s-0.467 1.043-1.043 1.043-1.043-0.467-1.043-1.043 0.467-1.043 1.043-1.043zM13.702 6.957c0.384 0 0.696 0.311 0.696 0.696 0 0.032-0.002 0.065-0.007 0.098l-0.836 5.913c-0.049 0.344-0.342 0.598-0.688 0.598h-0.957c0.165 0.184 0.265 0.428 0.265 0.696 0 0.576-0.467 1.044-1.043 1.044s-1.043-0.467-1.043-1.043c0-0.267 0.101-0.511 0.265-0.696h-3.885c-0.162-0.793-0.863-1.392-1.705-1.392s-1.543 0.598-1.704 1.392h-0.132c-0.346 0-0.639-0.255-0.688-0.598l-0.841-5.913c-0.054-0.38 0.21-0.732 0.591-0.787 0.032-0.005 0.065-0.007 0.097-0.007h11.615zM11.024 12.87c-0.841 0-1.543 0.598-1.704 1.392h1.033c0.191-0.213 0.469-0.348 0.777-0.348s0.586 0.134 0.777 0.348h0.821c-0.161-0.793-0.863-1.392-1.704-1.392zM10.583 10.087h-5.17c-0.059 0-0.114 0.026-0.152 0.071-0.062 0.074-0.060 0.181 0 0.252l0.026 0.025 0.322 0.268c0.050 0.041 0.111 0.068 0.174 0.077l0.048 0.004h4.328c0.065 0 0.127-0.018 0.181-0.051l0.040-0.028 0.327-0.269c0.045-0.037 0.072-0.093 0.072-0.152 0-0.108-0.088-0.196-0.196-0.196zM10.583 9.043h-5.17c-0.059 0-0.114 0.026-0.152 0.071-0.062 0.074-0.060 0.181 0 0.252l0.026 0.025 0.322 0.268c0.050 0.041 0.111 0.068 0.174 0.077l0.048 0.004h4.328c0.065 0 0.127-0.018 0.181-0.051l0.040-0.028 0.327-0.269c0.045-0.037 0.072-0.093 0.072-0.152 0-0.108-0.088-0.196-0.196-0.196zM4.923 3.384l0.014 0.014 2.158 2.276c0.132 0.139 0.127 0.359-0.013 0.492-0.064 0.061-0.151 0.096-0.239 0.096h-4.299c-0.192 0-0.348-0.156-0.348-0.348 0-0.088 0.034-0.174 0.095-0.239l2.141-2.276c0.132-0.14 0.352-0.147 0.492-0.015zM11.184 3.384l0.014 0.014 2.158 2.276c0.132 0.139 0.127 0.359-0.013 0.492-0.065 0.061-0.15 0.096-0.239 0.096h-4.299c-0.192 0-0.348-0.156-0.348-0.348 0-0.088 0.034-0.174 0.095-0.239l2.141-2.276c0.132-0.14 0.352-0.147 0.492-0.015zM8.054 0.253l0.014 0.014 2.165 2.283 0.017 0.020-0.024-0.027c0.013 0.014 0.024 0.028 0.035 0.043 0.004 0.006 0.008 0.011 0.011 0.017s0.008 0.013 0.011 0.019c0.004 0.007 0.007 0.014 0.010 0.021l0.007 0.018 0.007 0.019 0.006 0.022c0.002 0.007 0.003 0.014 0.004 0.022l0.002 0.015c0.001 0.008 0.002 0.017 0.002 0.025 0.001 0.006 0.001 0.013 0.001 0.019s0 0.013-0.001 0.019c0 0.007-0.001 0.014-0.002 0.021l-0.003 0.019-0.004 0.020-0.007 0.023-0.007 0.018-0.008 0.018-0.009 0.021c-0.004 0.006-0.007 0.013-0.011 0.020l-0.009 0.014c-0.011 0.016-0.023 0.031-0.037 0.046l0.022-0.026c-0.005 0.006-0.009 0.012-0.014 0.018l-0.008 0.009-2.172 2.29c-0.14 0.131-0.36 0.125-0.492-0.015l-2.147-2.282c-0.006-0.007-0.013-0.014-0.019-0.022l-0.011-0.014-0.013-0.020-0.008-0.014-0.012-0.025-0.005-0.014c-0.003-0.007-0.005-0.014-0.008-0.022l-0.005-0.018c-0.003-0.010-0.005-0.020-0.006-0.030-0.003-0.018-0.004-0.035-0.004-0.052 0-0.014 0-0.028 0.003-0.042l-0.003 0.042c0-0.019 0.002-0.039 0.005-0.058 0.002-0.009 0.003-0.017 0.005-0.025l0.005-0.017c0.003-0.009 0.005-0.017 0.008-0.025l0.005-0.010c0.003-0.010 0.008-0.018 0.013-0.027l0.008-0.014c0.004-0.007 0.008-0.013 0.012-0.019l0.012-0.017 0.014-0.018 2.149-2.285c0.132-0.139 0.352-0.146 0.492-0.015z" />
</svg>
