<!-- Generated by IcoMoon.io -->
<svg version="1.1" xmlns="http://www.w3.org/2000/svg" width="14" height="16" viewBox="0 0 14 16">
<title>icon-txt</title>
<path fill="#4a4a4a" d="M10.733 4.267h2.044l-2.044-2.044v2.044zM13.527 4.027c0.303 0.303 0.473 0.713 0.473 1.141v8.899c0 0.513-0.42 0.933-0.933 0.933h-9.334c-0.514-0.002-0.931-0.418-0.933-0.933v-0.7h0.7v0.7c0 0.126 0.107 0.233 0.233 0.233h9.334c0.128-0.002 0.232-0.105 0.233-0.233v-8.899c-0.001-0.072-0.009-0.141-0.025-0.207l0.002 0.006h-3.243v-3.243c-0.060-0.014-0.13-0.024-0.2-0.024h-6.099c-0.128 0.002-0.232 0.105-0.233 0.233v2.1h-0.7v-2.1c0-0.513 0.42-0.933 0.933-0.933h6.099c0.428 0 0.838 0.17 1.14 0.473l2.556 2.554zM9.1 7.418v-0.7h3.267v0.7h-3.267zM9.1 9.518v-0.7h3.267v0.7h-3.267zM9.1 11.618v-0.7h3.267v0.7h-3.267zM0 12.667v-7.934h7.933v7.934h-7.933zM6.014 6.9v-0.7h-4.095v0.7h1.638v4.298h0.82v-4.298h1.637z" />
</svg>
