<!-- Generated by IcoMoon.io -->
<svg version="1.1" xmlns="http://www.w3.org/2000/svg" width="18" height="16" viewBox="0 0 18 16">
<title>info</title>
<path fill="#dbdbdc" d="M9.458 8.229v3.841h1.037c0.203 0 0.367 0.165 0.367 0.368 0 0.001 0 0.001 0 0.002 0 0.203-0.164 0.367-0.367 0.367h-2.809c-0.101 0-0.193-0.041-0.26-0.108v0c-0.067-0.067-0.107-0.159-0.107-0.261 0 0 0-0.001 0-0.001v0c0-0.204 0.165-0.368 0.367-0.368h1.038v-3.103h-0.67c-0.2-0.005-0.361-0.168-0.361-0.369s0.16-0.364 0.36-0.369h1.404zM8.718 6.134h0.355c0.213 0 0.386 0.173 0.386 0.387v0.357c0 0 0 0 0 0 0 0.213-0.172 0.386-0.386 0.386h-0.355c-0.102 0-0.2-0.040-0.273-0.114s-0.113-0.171-0.113-0.274v-0.357c0-0 0-0.001 0-0.002 0-0.213 0.172-0.386 0.385-0.386v0zM1.502 14.858l7.589-13.214 7.588 13.214h-15.177zM18.103 15.133l-8.537-14.866c-0.196-0.341-0.753-0.341-0.949 0l-8.537 14.866c-0.046 0.079-0.074 0.174-0.074 0.275s0.027 0.197 0.075 0.278l-0.002-0.002c0.096 0.165 0.273 0.275 0.474 0.275h17.074c0.202 0 0.378-0.11 0.474-0.273l0.002-0.002c0.046-0.079 0.073-0.174 0.073-0.275s-0.027-0.196-0.075-0.278l0.002 0.002z" />
</svg>
