<!-- Generated by IcoMoon.io -->
<svg version="1.1" xmlns="http://www.w3.org/2000/svg" width="16" height="16" viewBox="0 0 16 16">
<title>info-circle-blue</title>
<path fill="#1677ff" stroke="#1677ff" stroke-linejoin="miter" stroke-linecap="butt" stroke-miterlimit="4" stroke-width="1.2308" d="M8 0.616c-4.078 0-7.385 3.307-7.385 7.385s3.307 7.384 7.385 7.384 7.384-3.306 7.384-7.385-3.306-7.385-7.385-7.385z" />
<path fill="#fff" d="M8.289 5.689h0.589v5.267l0.178 0.184 0.685 0.048v0.547h-3.197v-0.547l0.661-0.047 0.173-0.184v-4.208h-0.803v-0.488l1.714-0.572zM8.159 2.909c0.266 0 0.483 0.084 0.655 0.253s0.256 0.382 0.256 0.64c0 0.27-0.085 0.491-0.254 0.664s-0.383 0.258-0.646 0.258c-0.254 0-0.466-0.085-0.637-0.255s-0.256-0.385-0.256-0.643c0-0.262 0.085-0.48 0.253-0.655 0.153-0.162 0.369-0.263 0.609-0.263 0.007 0 0.014 0 0.020 0h-0.001z" />
</svg>
