<!-- Generated by IcoMoon.io -->
<svg version="1.1" xmlns="http://www.w3.org/2000/svg" width="16" height="16" viewBox="0 0 16 16">
<title>information</title>
<path fill="#1677ff" d="M8.104 0c4.348 0.014 7.921 3.59 7.896 7.909-0.002 2.107-0.841 4.125-2.333 5.614s-3.513 2.322-5.62 2.32c-4.352 0.008-7.91-3.595-7.889-7.99 0.018-2.093 0.865-4.093 2.353-5.564s3.5-2.293 5.593-2.287v0zM8.141 1.499c-1.71-0.016-3.355 0.651-4.569 1.855s-1.897 2.843-1.896 4.553c-0.040 3.5 2.865 6.42 6.373 6.428 1.71 0.005 3.349-0.675 4.556-1.885s1.88-2.854 1.87-4.563c-0.021-3.508-2.872-6.385-6.335-6.388z" />
<path fill="#1677ff" d="M7.745 12.411h-0.583c-0.011-0.008-0.021-0.015-0.034-0.021-0.359-0.142-0.553-0.531-0.45-0.903 0.265-1.091 0.537-2.181 0.801-3.273 0.037-0.152 0.064-0.305 0.079-0.46 0.011-0.039-0.001-0.081-0.032-0.107s-0.073-0.035-0.111-0.019c-0.063 0.014-0.124 0.035-0.182 0.062-0.133 0.056-0.261 0.12-0.394 0.173h-0c-0.096 0.055-0.218 0.031-0.287-0.057v-0.213c0.090-0.127 0.192-0.245 0.306-0.352 0.399-0.317 0.809-0.617 1.221-0.917 0.088-0.058 0.182-0.106 0.281-0.143 0.13-0.057 0.274-0.072 0.413-0.043 0.235 0.031 0.444 0.164 0.572 0.364s0.159 0.445 0.089 0.671c-0.258 1.057-0.518 2.107-0.776 3.152v0.001c-0.041 0.171-0.072 0.344-0.092 0.519-0.010 0.040 0.005 0.081 0.036 0.106s0.076 0.028 0.111 0.008c0.098-0.030 0.19-0.078 0.286-0.116s0.232-0.097 0.351-0.136v-0.001c0.069-0.025 0.148-0.003 0.192 0.056 0.050 0.057 0.058 0.14 0.019 0.206-0.029 0.062-0.066 0.118-0.11 0.169-0.098 0.107-0.204 0.209-0.317 0.3-0.432 0.367-0.899 0.694-1.393 0.973v0z" />
<path fill="#1677ff" d="M8.498 5.643c-0.449 0.003-0.857-0.264-1.031-0.678s-0.082-0.893 0.234-1.212c0.317-0.32 0.795-0.416 1.21-0.244s0.687 0.576 0.687 1.025c0.002 0.293-0.113 0.575-0.319 0.783s-0.487 0.325-0.78 0.326v0z" />
</svg>
