<!-- Generated by IcoMoon.io -->
<svg version="1.1" xmlns="http://www.w3.org/2000/svg" width="16" height="16" viewBox="0 0 16 16">
<title>loading-gray</title>
<path fill="#7f7f7f" d="M9.818 1.822c0 1.006-0.814 1.821-1.818 1.821s-1.818-0.816-1.818-1.821c0-1.006 0.814-1.822 1.818-1.822s1.818 0.816 1.818 1.822z" />
<path fill="#7f7f7f" d="M3.272 8.014c0 0.905-0.733 1.639-1.637 1.639s-1.637-0.733-1.637-1.639c0-0.905 0.733-1.639 1.637-1.639s1.637 0.734 1.637 1.639z" />
<path fill="#7f7f7f" d="M4.545 11.838c0 0.905-0.733 1.639-1.636 1.639s-1.637-0.733-1.637-1.639c0-0.905 0.733-1.639 1.637-1.639s1.636 0.735 1.636 1.639z" />
<path fill="#7f7f7f" d="M7.188 14.179c0 0.804-0.651 1.457-1.455 1.457s-1.454-0.652-1.454-1.457c0-0.804 0.652-1.457 1.454-1.457s1.454 0.652 1.454 1.457z" />
<path fill="#7f7f7f" d="M11.634 14.171c0 0.805-0.652 1.457-1.454 1.457s-1.454-0.652-1.454-1.457c0-0.805 0.652-1.457 1.454-1.457s1.454 0.652 1.454 1.457z" />
<path fill="#7f7f7f" d="M14.909 11.657c0 0.704-0.569 1.275-1.272 1.275s-1.273-0.571-1.273-1.275c0-0.704 0.569-1.275 1.273-1.275s1.273 0.571 1.273 1.275z" />
<path fill="#7f7f7f" d="M16 8.196c0 0.704-0.569 1.275-1.273 1.275s-1.273-0.571-1.273-1.276c0-0.704 0.569-1.275 1.273-1.275s1.273 0.571 1.273 1.275z" />
<path fill="#7f7f7f" d="M13.273 2.368c0 0.503-0.407 0.91-0.909 0.91s-0.909-0.408-0.909-0.91c0-0.503 0.407-0.91 0.909-0.91s0.909 0.407 0.909 0.91z" />
<path fill="#7f7f7f" d="M5.272 3.825c0 1.005-0.814 1.821-1.818 1.821s-1.818-0.816-1.818-1.821c0-1.006 0.814-1.822 1.818-1.822s1.818 0.816 1.818 1.822z" />
<path fill="#7f7f7f" d="M15.273 4.918c0 0.604-0.489 1.093-1.091 1.093s-1.091-0.489-1.091-1.093c0-0.604 0.489-1.093 1.091-1.093s1.091 0.489 1.091 1.093z" />
</svg>
