<!-- Generated by IcoMoon.io -->
<svg version="1.1" xmlns="http://www.w3.org/2000/svg" width="15" height="16" viewBox="0 0 15 16">
<title>logo</title>
<path fill="#fff" d="M7.069 16c-0 0-0.001 0-0.001 0-0.051 0-0.098-0.014-0.138-0.039l0.001 0.001-6.694-4c-0.079-0.047-0.13-0.132-0.13-0.229 0 0 0-0.001 0-0.001v0-7.733c0-0.096 0.053-0.186 0.137-0.232l6.694-3.733c0.037-0.021 0.082-0.034 0.13-0.034s0.093 0.013 0.132 0.035l-0.002-0.001 6.695 3.733c0.081 0.046 0.135 0.132 0.135 0.231 0 0.001 0 0.001 0 0.001v0 7.733c0 0.094-0.050 0.181-0.13 0.229l-6.694 4c-0.039 0.024-0.086 0.038-0.136 0.038-0 0-0.001 0-0.001 0v0zM0.642 11.582l6.426 3.84 6.426-3.84v-7.426l-6.426-3.584-6.426 3.584v7.425z" />
<path fill="#fff" d="M7.069 11.467c-1.919 0-3.481-1.555-3.481-3.467 0-0.495 0.106-1.020 0.29-1.44 0.045-0.088 0.136-0.148 0.239-0.148 0.148 0 0.268 0.12 0.268 0.268 0 0.034-0.006 0.066-0.018 0.095l0-0.002c-0.156 0.356-0.245 0.803-0.245 1.227 0 1.617 1.321 2.933 2.945 2.933s2.945-1.316 2.945-2.933c0-1.617-1.322-2.933-2.945-2.933-0.426 0-0.875 0.090-1.232 0.245-0.035 0.019-0.077 0.029-0.122 0.029-0.147 0-0.268-0.12-0.268-0.268 0-0.114 0.072-0.213 0.173-0.25l0.002-0c0.421-0.183 0.948-0.29 1.446-0.29 1.919 0 3.481 1.555 3.481 3.467s-1.562 3.467-3.481 3.467z" />
<path fill="#fff" d="M7.069 13.333c-2.953 0-5.355-2.393-5.355-5.333s2.402-5.333 5.355-5.333c0.955 0 1.929 0.29 2.819 0.84 0.076 0.048 0.126 0.131 0.126 0.227 0 0.147-0.12 0.267-0.267 0.267-0.053 0-0.101-0.015-0.143-0.041l0.001 0.001c-0.805-0.498-1.682-0.76-2.537-0.76-2.658 0-4.82 2.153-4.82 4.8s2.162 4.8 4.82 4.8c2.658 0 4.82-2.153 4.82-4.8 0-0.904-0.249-1.728-0.761-2.522-0.027-0.041-0.043-0.091-0.043-0.144 0-0.094 0.049-0.176 0.121-0.223l0.001-0c0.041-0.027 0.091-0.043 0.145-0.043 0.095 0 0.178 0.049 0.225 0.122l0.001 0.001c0.57 0.883 0.846 1.801 0.846 2.81 0 2.941-2.402 5.334-5.355 5.334z" />
</svg>
