<!-- Generated by IcoMoon.io -->
<svg version="1.1" xmlns="http://www.w3.org/2000/svg" width="16" height="16" viewBox="0 0 16 16">
<title>mobile-second-level</title>
<path fill="#1677ff" d="M13.819 7.857l-4.704-4.704c-0.087-0.088-0.208-0.143-0.342-0.143-0.017 0-0.034 0.001-0.050 0.002h0.002l-3.925 0.282c-0.248 0.021-0.445 0.217-0.465 0.464v0.002l-0.283 3.922c-0 0.009-0.001 0.019-0.001 0.030 0 0.139 0.054 0.266 0.142 0.361l4.707 4.704c0.091 0.088 0.216 0.143 0.353 0.143s0.262-0.055 0.353-0.143l4.214-4.213c0.2-0.2 0.2-0.516 0-0.707zM5.69 4.641c0.183-0.184 0.438-0.299 0.718-0.299s0.535 0.114 0.718 0.299v0c0.185 0.184 0.3 0.438 0.3 0.719s-0.114 0.535-0.3 0.719v0c-0.183 0.184-0.438 0.299-0.718 0.299s-0.535-0.114-0.718-0.299v0c-0.185-0.184-0.3-0.438-0.3-0.719s0.114-0.535 0.3-0.719v0zM12.355 8.389l-2.915 2.917c-0.1 0.1-0.258 0.1-0.35 0l-2.717-2.71c-0.1-0.099-0.1-0.257 0-0.348l2.916-2.918c0.1-0.1 0.258-0.1 0.35 0l2.709 2.71c0.1 0.091 0.1 0.25 0.008 0.349z" />
</svg>
