<!-- Generated by IcoMoon.io -->
<svg version="1.1" xmlns="http://www.w3.org/2000/svg" width="16" height="16" viewBox="0 0 16 16">
<title>model-version</title>
<path d="M5.538 0h-3.693c-1.018 0-1.845 0.827-1.845 1.847v3.692c0 1.020 0.827 1.846 1.847 1.846h3.692c1.020 0 1.845-0.827 1.845-1.845v-3.693c0-1.018-0.827-1.845-1.845-1.845zM6.154 4.923c0 1.020-0.21 1.231-1.231 1.231h-2.462c-1.020 0-1.23-0.21-1.23-1.231v-2.462c0-1.020 0.21-1.23 1.23-1.23h2.462c1.020 0 1.231 0.21 1.231 1.23v2.462zM14.153 0h-3.692c-1.020 0-1.845 0.827-1.845 1.847v3.692c0 1.020 0.826 1.846 1.845 1.846h3.694c1.018 0 1.845-0.827 1.845-1.845v-3.693c0-1.018-0.826-1.845-1.847-1.845zM14.77 4.923c0 1.020-0.21 1.231-1.23 1.231h-2.462c-1.020 0-1.23-0.21-1.23-1.231v-2.462c0-1.020 0.21-1.23 1.23-1.23h2.462c1.020 0 1.23 0.21 1.23 1.23v2.462zM5.538 8.616h-3.693c-1.018-0.002-1.845 0.825-1.845 1.844v3.694c0 1.020 0.827 1.847 1.847 1.847h3.692c1.020 0 1.845-0.826 1.845-1.847v-3.692c0-1.020-0.827-1.847-1.845-1.847zM6.154 13.539c0 1.018-0.21 1.23-1.231 1.23h-2.462c-1.020 0-1.23-0.212-1.23-1.23v-2.461c0-1.020 0.21-1.232 1.23-1.232h2.462c1.020 0 1.231 0.212 1.231 1.232v2.462zM14.153 8.614h-3.692c-1.020 0-1.845 0.826-1.845 1.847v3.694c0 1.018 0.826 1.845 1.845 1.845h3.694c1.018 0 1.845-0.826 1.845-1.847v-3.692c0-1.020-0.826-1.847-1.847-1.847zM14.77 13.539c0 1.018-0.21 1.23-1.23 1.23h-2.462c-1.020 0-1.23-0.212-1.23-1.23v-2.461c0-1.020 0.21-1.232 1.23-1.232h2.462c1.020 0 1.23 0.212 1.23 1.232v2.462z" />
</svg>
