<!-- Generated by IcoMoon.io -->
<svg version="1.1" xmlns="http://www.w3.org/2000/svg" width="16" height="16" viewBox="0 0 16 16">
<title>not-found</title>
<path d="M7.255 12.268h0c0.308 0.023 0.442 0.398 0.243 0.596l-2.008 2.008c-0.618 0.618-1.413 0.949-2.273 0.949-0.861 0-1.677-0.354-2.273-0.949-1.258-1.236-1.258-3.266 0-4.524l3.355-3.311c0.795-0.795 1.941-1.126 3.089-0.839 0.309 0.066 0.575 0.2 0.838 0.354 0.398 0.243 0.75 0.574 0.993 0.949 0.133 0.177 0.088 0.441-0.088 0.575 0 0 0 0.023-0.023 0.023-0.198 0.177-0.486 0.133-0.639-0.088-0.177-0.264-0.419-0.485-0.706-0.662-0.2-0.133-0.441-0.221-0.684-0.287-0.839-0.199-1.678 0.044-2.273 0.64l-3.133 3.133c-0.463 0.441-0.706 1.059-0.706 1.699s0.242 1.236 0.706 1.699c0.574 0.574 1.368 0.816 2.184 0.662 0.485-0.088 0.926-0.352 1.28-0.706l1.809-1.809c0.066-0.088 0.176-0.133 0.308-0.111zM9.947 9.754c0.155 0.22 0.111 0.508-0.108 0.641-0.483 0.318-1.076 0.508-1.713 0.508-0.003 0-0.006 0-0.009 0h0.001c-0.861 0-1.678-0.353-2.273-0.949-0.154-0.154-0.287-0.309-0.397-0.485s-0.067-0.441 0.088-0.574c0.021 0 0.021-0.023 0.044-0.023 0.198-0.155 0.485-0.133 0.639 0.088 0.176 0.243 0.396 0.441 0.64 0.618 0.208 0.147 0.451 0.261 0.713 0.328l0.015 0.004c0.64 0.154 1.28 0.066 1.809-0.243 0.198-0.111 0.419-0.066 0.552 0.088zM11.778 4.568c0.419-2.053-0.264-2.803-1.103-3.31-0.375-0.177-0.773-0.287-1.17-0.287-0.909 0-1.7 0.503-2.112 1.245l-0.006 0.013-1.213 2.251c-0.066 0.133-0.2 0.221-0.354 0.243h-0.044c-0.376 0.066-0.641-0.331-0.464-0.639l1.28-2.405c0.751-1.346 1.876-1.677 3.046-1.677 0.529 0 1.059 0.154 1.522 0.398 0.088 0.066 0.376 0.22 0.463 0.287 1.147 0.75 1.5 2.119 1.081 4.082-0.044 0.243-0.309 0.397-0.552 0.331l-0.066-0.022c-0.221-0.044-0.352-0.287-0.309-0.508zM13.521 6.885c-0.242 0.021-0.419-0.154-0.441-0.397s0.154-0.442 0.398-0.442l1.081-0.044c0.243-0.021 0.419 0.154 0.441 0.397s-0.154 0.441-0.398 0.441l-1.081 0.044zM15.486 8.981c0.221 0.088 0.309 0.331 0.243 0.552-0.088 0.22-0.331 0.331-0.552 0.243l-2.229-0.905c-0.221-0.088-0.331-0.331-0.243-0.552s0.331-0.331 0.552-0.243l2.229 0.905zM12.507 9.71l0.993 1.037c0.154 0.177 0.154 0.441-0.023 0.595s-0.441 0.154-0.595-0.023l-0.993-1.037c-0.154-0.177-0.154-0.441 0.023-0.596s0.441-0.154 0.595 0.023z" />
</svg>
