<!-- Generated by IcoMoon.io -->
<svg version="1.1" xmlns="http://www.w3.org/2000/svg" width="16" height="16" viewBox="0 0 16 16">
<title>play</title>
<path fill="#fff" d="M12.646 8.854c0.309-0.177 0.493-0.497 0.493-0.854 0-0.002 0-0.003 0-0.005 0-0.362-0.197-0.678-0.489-0.846l-0.005-0.003-8.305-4.796c-0.141-0.083-0.311-0.133-0.493-0.133s-0.352 0.050-0.497 0.135l0.005-0.002c-0.297 0.171-0.494 0.487-0.494 0.849 0 0.002 0 0.005 0 0.006v-0.001 9.589c0 0.357 0.186 0.676 0.494 0.854 0.141 0.084 0.312 0.133 0.493 0.133s0.352-0.050 0.498-0.136l-0.005 0.002 8.305-4.795zM14.134 8c0 0.003 0 0.007 0 0.011 0 0.726-0.395 1.361-0.981 1.7l-0.009 0.005-8.304 4.796c-0.284 0.168-0.625 0.268-0.99 0.268s-0.707-0.1-1-0.274l0.009 0.005c-0.597-0.344-0.992-0.979-0.992-1.706 0-0.004 0-0.008 0-0.011v0.001-9.589c0-0.716 0.37-1.359 0.991-1.716 0.284-0.169 0.626-0.27 0.992-0.27 0.365 0 0.707 0.1 1 0.274l-0.009-0.005 8.304 4.796c0.596 0.345 0.991 0.979 0.991 1.704 0 0.003 0 0.007 0 0.011v-0z" />
</svg>
