<!-- Generated by IcoMoon.io -->
<svg version="1.1" xmlns="http://www.w3.org/2000/svg" width="16" height="16" viewBox="0 0 16 16">
<title>plus-circle</title>
<path d="M7.747 0c4.277 0.005 7.742 3.47 7.747 7.747v0c-0.005 4.277-3.472 7.743-7.748 7.747h-0c-4.277-0.006-7.742-3.472-7.747-7.748v-0c0.006-4.276 3.471-7.741 7.747-7.747h0zM7.747 14.517c3.737-0.005 6.765-3.033 6.769-6.769v-0c-0.005-3.736-3.032-6.764-6.768-6.769h-0c-3.737 0.004-6.766 3.032-6.771 6.769v0c0.004 3.736 3.032 6.764 6.769 6.769h0zM11.199 7.096c0.36 0 0.652 0.292 0.652 0.652s-0.291 0.652-0.652 0.652h-2.8v2.801c0 0.36-0.291 0.652-0.652 0.652s-0.652-0.291-0.652-0.652v-2.8h-2.799c-0.36 0-0.651-0.291-0.651-0.652s0.292-0.652 0.651-0.652h2.8v-2.8c0-0.36 0.292-0.651 0.651-0.651s0.652 0.292 0.652 0.651v0 2.8h2.8z" />
</svg>
