<!-- Generated by IcoMoon.io -->
<svg version="1.1" xmlns="http://www.w3.org/2000/svg" width="16" height="16" viewBox="0 0 16 16">
<title>preview-blue</title>
<path fill="#1677ff" d="M0.667 5c-0.368 0-0.667-0.298-0.667-0.667v-1c0-1.103 0.897-2 2-2h1c0.368 0 0.667 0.298 0.667 0.667s-0.299 0.667-0.667 0.667h-1c-0.367 0-0.667 0.299-0.667 0.667v1c0 0.369-0.299 0.667-0.667 0.667z" />
<path fill="#1677ff" d="M15.333 5c-0.368 0-0.667-0.298-0.667-0.667v-1c0-0.368-0.299-0.667-0.667-0.667h-1c-0.368 0-0.667-0.298-0.667-0.667s0.299-0.667 0.667-0.667h1c1.103 0 2 0.897 2 2v1c0 0.369-0.299 0.667-0.667 0.667z" />
<path fill="#1677ff" d="M3 14.667h-1c-1.103 0-2-0.897-2-2v-1c0-0.369 0.299-0.667 0.667-0.667s0.667 0.298 0.667 0.667v1c0 0.368 0.299 0.667 0.667 0.667h1c0.368 0 0.667 0.298 0.667 0.667s-0.299 0.667-0.667 0.667z" />
<path fill="#1677ff" d="M14 14.667h-1c-0.368 0-0.667-0.298-0.667-0.667s0.299-0.667 0.667-0.667h1c0.367 0 0.667-0.299 0.667-0.667v-1c0-0.369 0.299-0.667 0.667-0.667s0.667 0.298 0.667 0.667v1c0 1.103-0.897 2-2 2z" />
<path fill="#607d8b" d="M8 3.956c-2.565 0-4.752 1.614-5.319 3.925-0.019 0.078-0.019 0.16 0 0.238 0.567 2.311 2.755 3.925 5.319 3.925s4.752-1.614 5.319-3.925c0.019-0.078 0.019-0.16 0-0.238-0.567-2.312-2.755-3.925-5.319-3.925z" />
<path fill="#fafafa" d="M8 6c-1.103 0-2 0.897-2 2s0.897 2 2 2 2-0.897 2-2-0.897-2-2-2z" />
<path fill="#546d79" d="M8 3.956c-2.565 0-4.752 1.614-5.319 3.925-0.019 0.078-0.019 0.16 0 0.238 0.567 2.311 2.755 3.925 5.319 3.925v-2.045c-1.103 0-2-0.897-2-2s0.897-2 2-2z" />
<path fill="#dadada" d="M8 6c-1.103 0-2 0.897-2 2s0.897 2 2 2z" />
<path fill="#1677ff" d="M1.527 2.86c-0.12 0.127-0.193 0.287-0.193 0.473v1c0 0.367-0.3 0.667-0.667 0.667s-0.667-0.3-0.667-0.667v-1c0-0.547 0.227-1.053 0.587-1.413z" />
<path fill="#1677ff" d="M14.473 2.86c-0.127-0.12-0.287-0.193-0.473-0.193h-1c-0.367 0-0.667-0.3-0.667-0.667s0.3-0.667 0.667-0.667h1c0.547 0 1.053 0.227 1.413 0.587z" />
<path fill="#1677ff" d="M14.473 13.14c0.12-0.127 0.193-0.287 0.193-0.473v-1c0-0.367 0.3-0.667 0.667-0.667s0.667 0.3 0.667 0.667v1c0 0.547-0.227 1.053-0.587 1.413z" />
<path fill="#1677ff" d="M1.527 13.14c0.127 0.12 0.287 0.193 0.473 0.193h1c0.367 0 0.667 0.3 0.667 0.667s-0.3 0.667-0.667 0.667h-1c-0.547 0-1.053-0.227-1.413-0.587z" />
</svg>
