<!-- Generated by IcoMoon.io -->
<svg version="1.1" xmlns="http://www.w3.org/2000/svg" width="16" height="16" viewBox="0 0 16 16">
<title>preview</title>
<path d="M0.333 4.667c-0.184 0-0.333-0.149-0.333-0.333v-1.333c0-0.919 0.747-1.667 1.667-1.667h1.333c0.184 0 0.333 0.149 0.333 0.333s-0.149 0.333-0.333 0.333h-1.333c-0.551 0-1 0.449-1 1v1.333c0 0.184-0.149 0.333-0.333 0.333z" />
<path d="M15.667 4.667c-0.184 0-0.333-0.149-0.333-0.333v-1.333c0-0.551-0.449-1-1-1h-1.333c-0.184 0-0.333-0.149-0.333-0.333s0.149-0.333 0.333-0.333h1.333c0.919 0 1.667 0.748 1.667 1.667v1.333c0 0.184-0.149 0.333-0.333 0.333z" />
<path d="M3 14.667h-1.333c-0.919 0-1.667-0.748-1.667-1.667v-1.333c0-0.184 0.149-0.333 0.333-0.333s0.333 0.149 0.333 0.333v1.333c0 0.551 0.449 1 1 1h1.333c0.184 0 0.333 0.149 0.333 0.333s-0.149 0.333-0.333 0.333z" />
<path d="M14.333 14.667h-1.333c-0.184 0-0.333-0.149-0.333-0.333s0.149-0.333 0.333-0.333h1.333c0.551 0 1-0.449 1-1v-1.333c0-0.184 0.149-0.333 0.333-0.333s0.333 0.149 0.333 0.333v1.333c0 0.919-0.747 1.667-1.667 1.667z" />
<path d="M8 12c-2.569 0-4.757-1.612-5.323-3.921-0.013-0.052-0.013-0.107 0-0.159 0.566-2.309 2.755-3.921 5.323-3.921s4.757 1.612 5.323 3.921c0.013 0.052 0.013 0.107 0 0.159-0.566 2.309-2.755 3.921-5.323 3.921zM3.344 8c0.524 1.967 2.426 3.333 4.656 3.333s4.132-1.367 4.656-3.333c-0.524-1.967-2.425-3.333-4.656-3.333s-4.132 1.367-4.656 3.333z" />
<path d="M8 10c-1.103 0-2-0.897-2-2s0.897-2 2-2 2 0.897 2 2-0.897 2-2 2zM8 6.667c-0.735 0-1.333 0.598-1.333 1.333s0.598 1.333 1.333 1.333 1.333-0.598 1.333-1.333-0.598-1.333-1.333-1.333z" />
</svg>
