<!-- Generated by IcoMoon.io -->
<svg version="1.1" xmlns="http://www.w3.org/2000/svg" width="16" height="16" viewBox="0 0 16 16">
<title>profile</title>
<path fill="#d8d8d8" d="M16 8c0 4.418-3.582 8-8 8s-8-3.582-8-8c0-4.418 3.582-8 8-8s8 3.582 8 8z" />
<path fill="#fff" d="M5.828 7.811c-0.019 0-0.039 0.003-0.058 0.005-0.15 0.026-0.463 0.176-0.881 0.89-0.653 1.117-0.851 2.585-0.633 2.953 0.659 1.112 2.63 1.278 3.745 1.278s3.086-0.166 3.745-1.278c0.218-0.367 0.020-1.835-0.633-2.953-0.441-0.755-0.773-0.875-0.895-0.892-0.014-0.003-0.030-0.003-0.046-0.003-0.056 0-0.107 0.016-0.151 0.045l0.001-0-0.056 0.044c-1.263 0.761-2.667 0.761-3.929 0l-0.056-0.044c-0.001 0-0.056-0.043-0.151-0.043zM8 13.568c-1.527 0-3.511-0.275-4.288-1.588-0.422-0.713-0.014-2.485 0.632-3.591 0.428-0.731 0.883-1.135 1.354-1.199 0.040-0.006 0.085-0.010 0.13-0.010 0.21 0 0.402 0.072 0.555 0.192l-0.002-0.002c1.054 0.625 2.182 0.627 3.237 0 0.151-0.119 0.344-0.191 0.553-0.191 0.046 0 0.091 0.003 0.136 0.010l-0.005-0c0.47 0.064 0.926 0.468 1.354 1.199 0.647 1.107 1.055 2.879 0.632 3.592-0.777 1.312-2.76 1.587-4.287 1.587zM8 7.297c-1.343-0.002-2.431-1.090-2.433-2.432v0c0.002-1.343 1.090-2.432 2.433-2.433v0c1.343 0.002 2.431 1.090 2.433 2.433v0c-0.002 1.343-1.090 2.431-2.433 2.432v0zM8 3.063c-0.995 0.002-1.801 0.808-1.802 1.803v0c0.002 0.995 0.808 1.8 1.802 1.801v0c0.995-0.001 1.801-0.807 1.802-1.801v0c-0.001-0.995-0.807-1.801-1.802-1.803v0z" />
</svg>
