<!-- Generated by IcoMoon.io -->
<svg version="1.1" xmlns="http://www.w3.org/2000/svg" width="16" height="16" viewBox="0 0 16 16">
<title>remark</title>
<path fill="#888" d="M8.133 15.893c-2.24 0-4.373-0.96-5.867-2.614-1.242-1.374-2.001-3.204-2.001-5.211 0-0.325 0.020-0.644 0.058-0.959l-0.004 0.037c0.4-3.6 3.305-6.507 6.905-6.907 2.24-0.24 4.48 0.453 6.133 1.947 1.621 1.444 2.639 3.536 2.64 5.866v0.001c-0.005 1.274-0.31 2.475-0.848 3.539l0.021-0.046 0.773 2.32c0.107 0.347 0.027 0.72-0.213 0.96s-0.614 0.347-0.96 0.267l-2.161-0.587c-1.24 0.867-2.779 1.386-4.44 1.386-0.014 0-0.027 0-0.040 0h0.002zM8.161 1.254c-0.267 0-0.534 0.027-0.8 0.053-3.121 0.347-5.627 2.854-5.973 5.973-0.214 1.947 0.373 3.84 1.68 5.306 1.251 1.392 3.056 2.264 5.066 2.267h0.001c0.004 0 0.008 0 0.014 0 1.454 0 2.8-0.46 3.901-1.242l-0.021 0.014c0.24-0.16 0.534-0.213 0.827-0.133l2 0.56-0.722-2.213c-0.029-0.091-0.046-0.196-0.046-0.305 0-0.161 0.037-0.313 0.101-0.448l-0.002 0.007c0.48-0.934 0.72-2 0.72-3.066 0-1.92-0.827-3.787-2.267-5.067-1.175-1.059-2.739-1.706-4.454-1.706-0.009 0-0.019 0-0.028 0h0.002zM8.267 6.454h-4.053c-0.295-0-0.533-0.239-0.534-0.534v0c0-0.295 0.24-0.534 0.534-0.534h4.053c0.28 0.019 0.498 0.25 0.498 0.533s-0.22 0.514-0.497 0.533h-0.002zM11.466 8.507h-7.253c-0.295-0.001-0.533-0.239-0.534-0.534v0c0-0.293 0.24-0.534 0.534-0.534h7.253c0.28 0.019 0.498 0.25 0.498 0.533s-0.22 0.514-0.497 0.533h-0.002zM11.466 10.561h-7.253c-0.295-0.001-0.533-0.239-0.534-0.534v0c0-0.293 0.24-0.534 0.534-0.534h7.253c0.294 0 0.534 0.24 0.534 0.534s-0.24 0.534-0.534 0.534z" />
</svg>
