<!-- Generated by IcoMoon.io -->
<svg version="1.1" xmlns="http://www.w3.org/2000/svg" width="16" height="16" viewBox="0 0 16 16">
<title>setting-white</title>
<path fill="#fff" d="M15.964 6.934l-2.204-0.925-0.258-0.702 0.791-2.151-1.502-1.413-2.16 0.862-0.711-0.338-0.978-2.107h-1.973l-0.925 2.16-0.729 0.293-2.169-0.8-1.511 1.413 0.907 2.115-0.329 0.667-2.169 1.022-0.009 1.956 2.213 0.96 0.258 0.746-0.845 2.169 1.466 1.396 2.151-0.889 0.72 0.267 1.022 2.213 2.054-0.036 0.942-2.133 0.755-0.249 2.16 0.826 1.422-1.378-0.854-2.258 0.302-0.729 2.169-0.951-0.009-2.009zM8.009 4.995c0.829 0 1.538 0.293 2.124 0.88 0.586 0.592 0.88 1.303 0.88 2.134 0 0.829-0.293 1.538-0.88 2.124s-1.295 0.88-2.124 0.88-1.54-0.293-2.133-0.88c-0.543-0.527-0.88-1.264-0.88-2.079 0-0.016 0-0.032 0-0.048v0.002c0-0.83 0.293-1.542 0.88-2.133 0.531-0.543 1.271-0.88 2.091-0.88 0.015 0 0.030 0 0.045 0h-0.002z" />
</svg>
