<!-- Generated by IcoMoon.io -->
<svg version="1.1" xmlns="http://www.w3.org/2000/svg" width="48" height="16" viewBox="0 0 48 16">
<title>standard</title>
<path fill="#08163d" d="M7.069 16c-0.048 0-0.096-0.012-0.138-0.038l-6.694-4c-0.081-0.048-0.13-0.134-0.13-0.229v-7.733c0-0.096 0.052-0.186 0.137-0.232l6.694-3.733c0.081-0.046 0.181-0.046 0.261 0l6.694 3.733c0.084 0.046 0.136 0.135 0.136 0.232v7.733c0 0.094-0.050 0.181-0.13 0.229l-6.694 4c-0.042 0.026-0.090 0.038-0.138 0.038zM0.643 11.582l6.426 3.84 6.426-3.84v-7.426l-6.426-3.584-6.426 3.584v7.426z" />
<path fill="#08163d" d="M7.069 11.467c-1.919 0-3.482-1.555-3.482-3.467 0-0.495 0.107-1.020 0.291-1.44 0.059-0.135 0.218-0.197 0.353-0.138s0.197 0.216 0.138 0.351c-0.157 0.356-0.245 0.803-0.245 1.227 0 1.617 1.321 2.933 2.945 2.933s2.945-1.316 2.945-2.933c0-1.617-1.322-2.933-2.945-2.933-0.426 0-0.875 0.090-1.232 0.245-0.135 0.060-0.293-0.003-0.353-0.138s0.003-0.293 0.138-0.351c0.42-0.183 0.948-0.29 1.446-0.29 1.919 0 3.481 1.555 3.481 3.467s-1.563 3.467-3.482 3.467z" />
<path fill="#08163d" d="M7.069 13.333c-2.952 0-5.355-2.393-5.355-5.333s2.402-5.333 5.355-5.333c0.955 0 1.929 0.29 2.819 0.841 0.126 0.078 0.164 0.241 0.086 0.368s-0.242 0.163-0.369 0.086c-0.805-0.498-1.682-0.76-2.537-0.76-2.658 0-4.819 2.154-4.819 4.8s2.162 4.8 4.819 4.8c2.658 0 4.819-2.154 4.819-4.8 0-0.904-0.248-1.728-0.761-2.522-0.079-0.124-0.044-0.289 0.081-0.369s0.29-0.044 0.37 0.080c0.57 0.883 0.847 1.803 0.847 2.811 0 2.941-2.402 5.333-5.356 5.333z" />
<path fill="#08163d" d="M20.351 7.844c1.698 0 2.949-1.29 2.949-2.958s-1.25-2.973-2.997-2.973-2.949 1.306-2.949 2.981 1.297 2.949 2.997 2.949zM20.405 7.38c-0.991 0-1.691-0.574-1.802-1.534-0.055-0.503-0.055-1.447 0-1.958 0.102-0.928 0.645-1.557 1.66-1.557 0.991 0 1.691 0.598 1.802 1.557 0.055 0.503 0.063 1.447 0 1.958-0.11 0.928-0.645 1.534-1.66 1.534zM25.84 9.543v-0.283h-0.157c-0.102 0-0.433-0.306-0.433-0.432v-1.581c0.196 0.299 0.48 0.582 1.085 0.582 0.967 0 1.746-0.771 1.746-2.022 0-1.171-0.692-1.919-1.613-1.919-0.613 0-1.038 0.291-1.274 0.74l-0.095-0.654h-1.431v0.284h0.157c0.11 0 0.416 0.306 0.416 0.433v4.137c0 0.126-0.322 0.432-0.433 0.432h-0.157v0.284h2.186zM26.155 7.333c-0.527 0-0.913-0.386-0.913-0.96v-0.951c0.086-0.566 0.401-1.054 0.959-1.054 0.487 0 0.779 0.37 0.834 0.96 0.031 0.33 0.031 0.707 0 1.046-0.055 0.574-0.354 0.96-0.881 0.96zM29.899 7.829c0.503 0 1.053-0.441 1.218-0.614l-0.173-0.244c-0.157 0.117-0.409 0.22-0.605 0.22-0.212 0-0.362-0.133-0.362-0.354v-2.447h1.014v-0.417h-1.038v-1.038h-0.252c-0.362 0.433-0.802 0.833-1.306 1.171v0.284h0.574v2.564c0 0.559 0.401 0.873 0.928 0.873zM32.423 3.212c0.338 0 0.582-0.228 0.582-0.582s-0.244-0.574-0.582-0.574-0.59 0.22-0.59 0.574c0 0.354 0.252 0.582 0.59 0.582zM33.54 7.742v-0.284h-0.157c-0.102 0-0.432-0.306-0.432-0.433v-3.051h-1.596v0.284h0.157c0.11 0 0.433 0.314 0.433 0.433v2.335c0 0.126-0.322 0.433-0.433 0.433h-0.157v0.284h2.187zM35.876 7.742v-0.284h-0.157c-0.102 0-0.378-0.306-0.378-0.433v-1.769c0-0.244 0.543-0.668 0.928-0.668 0.283 0 0.449 0.196 0.449 0.503v1.934c0 0.126-0.291 0.433-0.401 0.433h-0.157v0.284h2.084v-0.284h-0.157c-0.102 0-0.377-0.306-0.377-0.433v-1.785c0.023-0.252 0.55-0.652 0.928-0.652 0.283 0 0.449 0.196 0.449 0.503v1.934c0 0.126-0.291 0.433-0.401 0.433h-0.157v0.284h2.099v-0.284h-0.157c-0.102 0-0.394-0.306-0.394-0.433v-2.021c0-0.59-0.432-1.117-1.046-1.117-0.653 0-1.030 0.457-1.353 0.818-0.102-0.464-0.495-0.818-1.014-0.818-0.66 0-1.007 0.464-1.329 0.85l-0.133-0.763h-1.423v0.284h0.157c0.11 0 0.416 0.306 0.416 0.433v2.335c0 0.126-0.306 0.433-0.416 0.433h-0.157v0.284h2.1zM41.861 3.212c0.338 0 0.581-0.228 0.581-0.582s-0.243-0.574-0.581-0.574c-0.339 0-0.59 0.22-0.59 0.574s0.252 0.582 0.59 0.582zM42.978 7.742v-0.284h-0.157c-0.102 0-0.432-0.306-0.432-0.433v-3.051h-1.597v0.284h0.157c0.11 0 0.432 0.314 0.432 0.433v2.335c0 0.126-0.322 0.433-0.432 0.433h-0.157v0.284h2.187zM44.834 7.742v-0.284h-0.157c-0.102 0-0.243-0.385-0.157-0.48l0.582-0.723 0.566 0.724c0.071 0.087-0.055 0.48-0.157 0.48h-0.157v0.283h2.194v-0.284h-0.094c-0.11 0-0.511-0.393-0.574-0.471l-1.148-1.407 0.716-0.834c0.078-0.086 0.629-0.487 0.731-0.495h0.102v-0.275h-1.581v0.275h0.165c0.087 0 0.181 0.386 0.102 0.487l-0.449 0.582-0.471-0.582c-0.071-0.095 0.016-0.487 0.118-0.487h0.165v-0.275h-2.1v0.275h0.118c0.11 0 0.511 0.394 0.574 0.473l0.96 1.242-0.905 1.006c-0.079 0.079-0.63 0.48-0.731 0.487h-0.118v0.284h1.707zM18.56 13.419c0.558 0 0.905-0.224 0.905-0.614 0-0.363-0.301-0.507-0.611-0.551l0.247-0.068c0.139-0.070 0.239-0.186 0.239-0.383 0-0.369-0.363-0.531-0.811-0.531h-0.924v0.107h0.089c0.041 0 0.165 0.133 0.165 0.177v1.581c0 0.047-0.122 0.177-0.163 0.177h-0.088v0.107h0.95zM18.563 12.225h-0.268v-0.717c0-0.035 0.062-0.1 0.097-0.1h0.136c0.172 0 0.366 0.124 0.372 0.345 0.003 0.056 0.003 0.095 0 0.148-0.012 0.224-0.18 0.304-0.336 0.325zM18.563 13.271h-0.172c-0.029 0-0.097-0.065-0.097-0.097v-0.812h0.303c0.189 0 0.41 0.121 0.416 0.36 0.003 0.065 0.003 0.107 0 0.168-0.012 0.248-0.206 0.38-0.451 0.38zM20.026 14.137l0.378-0.782 0.505-1.073c0.029-0.047 0.139-0.168 0.171-0.168h0.044v-0.107h-0.581v0.107h0.074c0.038 0 0.127 0.112 0.124 0.168l-0.295 0.652-0.298-0.652c0-0.053 0.085-0.168 0.124-0.168h0.074v-0.107h-0.849v0.107h0.041c0.035 0 0.165 0.13 0.189 0.174l0.528 1.026-0.395 0.743 0.169 0.080zM23.329 13.479l0.794-1.805v1.463c0 0.041-0.124 0.177-0.159 0.177h-0.107v0.106h0.947v-0.107h-0.088c-0.035 0-0.163-0.136-0.163-0.177v-1.578c0-0.038 0.133-0.177 0.169-0.177h0.089v-0.109h-0.693l-0.646 1.469h-0.017l-0.643-1.469h-0.714v0.109h0.089c0.032 0 0.169 0.133 0.169 0.177v1.578c0 0.041-0.133 0.177-0.163 0.177h-0.095v0.107h0.702v-0.107h-0.106c-0.032 0-0.163-0.136-0.163-0.177v-1.463l0.799 1.805zM25.615 13.453c0.351 0 0.566-0.207 0.66-0.555h-0.11c-0.082 0.159-0.183 0.277-0.442 0.277-0.28 0-0.448-0.215-0.448-0.511 0-0.322 0.113-0.554 0.346-0.554 0.189 0 0.265 0.145 0.215 0.421l0.11-0.009 0.215-0.336c-0.074-0.068-0.236-0.209-0.505-0.212-0.404-0.003-0.714 0.301-0.714 0.773 0 0.389 0.28 0.705 0.672 0.705zM27.287 13.42v-0.107h-0.085c-0.044 0-0.16-0.13-0.16-0.177v-0.563l0.133-0.142 0.671 0.988h0.666v-0.109h-0.065c-0.041 0-0.227-0.145-0.259-0.192l-0.737-0.979 0.513-0.543c0.023-0.030 0.286-0.219 0.331-0.219h0.053v-0.107h-0.829v0.107h0.091c0.041 0 0.165 0.168 0.133 0.207l-0.7 0.775v-0.805c0-0.044 0.124-0.177 0.169-0.177h0.085v-0.107h-0.938v0.107h0.088c0.041 0 0.165 0.133 0.165 0.177v1.581c0 0.047-0.121 0.177-0.162 0.177h-0.089v0.107h0.927zM28.986 11.722c0.127 0 0.218-0.085 0.218-0.219s-0.091-0.215-0.218-0.215-0.221 0.082-0.221 0.215 0.095 0.219 0.221 0.219zM29.404 13.419v-0.107h-0.059c-0.038 0-0.162-0.115-0.162-0.162v-1.145h-0.599v0.107h0.059c0.041 0 0.162 0.117 0.162 0.162v0.876c0 0.047-0.121 0.162-0.162 0.162h-0.059v0.107h0.82zM30.292 13.419v-0.107h-0.059c-0.038 0-0.148-0.115-0.148-0.162v-0.661c0-0.091 0.233-0.251 0.378-0.251 0.107 0 0.169 0.074 0.169 0.189v0.723c0 0.047-0.115 0.162-0.157 0.162h-0.059v0.107h0.799v-0.107h-0.059c-0.038 0-0.148-0.115-0.148-0.162v-0.758c0-0.221-0.169-0.418-0.398-0.418-0.247 0-0.407 0.182-0.528 0.319l-0.050-0.286h-0.54v0.107h0.059c0.041 0 0.157 0.114 0.157 0.162v0.876c0 0.047-0.115 0.162-0.157 0.162h-0.059v0.107h0.799zM31.95 13.452c0.301 0 0.499-0.165 0.499-0.434 0-0.213-0.16-0.363-0.334-0.431-0.112-0.044-0.195-0.080-0.301-0.127s-0.212-0.095-0.212-0.197c0-0.098 0.067-0.159 0.197-0.159 0.254 0 0.454 0.257 0.454 0.342h0.094v-0.439h-0.089c-0.015 0.024-0.044 0.038-0.080 0.038-0.094 0-0.209-0.070-0.366-0.070-0.28 0-0.466 0.159-0.466 0.418 0 0.183 0.115 0.319 0.309 0.411 0.112 0.053 0.201 0.091 0.309 0.133 0.103 0.038 0.209 0.1 0.209 0.21 0 0.103-0.086 0.159-0.215 0.159-0.289 0-0.514-0.28-0.514-0.374h-0.094v0.49h0.088c0.020-0.027 0.056-0.050 0.091-0.050 0.091 0 0.239 0.082 0.416 0.082zM33.285 13.452c0.331 0 0.531-0.207 0.638-0.531h-0.109c-0.092 0.159-0.188 0.254-0.416 0.254-0.275 0-0.431-0.251-0.437-0.505l0.891-0.071-0.010-0.106c-0.020-0.233-0.182-0.516-0.557-0.519-0.407-0.003-0.69 0.322-0.69 0.743 0 0.393 0.236 0.735 0.69 0.735zM32.956 12.537c-0.005-0.209 0.071-0.431 0.322-0.431 0.212 0 0.251 0.186 0.224 0.386l-0.546 0.044zM34.439 14.136l0.377-0.782 0.505-1.073c0.029-0.047 0.139-0.168 0.172-0.168h0.044v-0.107h-0.581v0.107h0.074c0.038 0 0.127 0.112 0.124 0.168l-0.295 0.652-0.298-0.652c0-0.053 0.086-0.168 0.124-0.168h0.074v-0.107h-0.849v0.107h0.041c0.035 0 0.165 0.13 0.189 0.174l0.528 1.026-0.395 0.743 0.169 0.080z" />
</svg>
