<!-- Generated by IcoMoon.io -->
<svg version="1.1" xmlns="http://www.w3.org/2000/svg" width="16" height="16" viewBox="0 0 16 16">
<title>success</title>
<path fill="#1677ff" d="M8 0.149c4.329 0 7.851 3.522 7.851 7.851s-3.521 7.851-7.851 7.851-7.851-3.521-7.851-7.851 3.522-7.851 7.851-7.851zM8 14.86c3.783 0 6.86-3.078 6.86-6.86s-3.078-6.859-6.86-6.859c-3.783 0-6.859 3.077-6.859 6.859s3.077 6.86 6.859 6.86zM11.192 5.6c0.12-0.12 0.284-0.193 0.466-0.193 0.364 0 0.66 0.295 0.66 0.66 0 0.183-0.074 0.348-0.194 0.467v0l-4.878 4.879c-0.12 0.12-0.285 0.193-0.467 0.193s-0.348-0.073-0.467-0.193l-2.439-2.439c-0.119-0.12-0.194-0.284-0.194-0.467 0-0.364 0.296-0.66 0.66-0.66 0.183 0 0.348 0.074 0.467 0.193l1.973 1.973 4.412-4.412z" />
</svg>
