<!-- Generated by IcoMoon.io -->
<svg version="1.1" xmlns="http://www.w3.org/2000/svg" width="16" height="16" viewBox="0 0 16 16">
<title>target</title>
<path d="M3.645 6.063c0.137 0.14 0.328 0.22 0.525 0.22h1.278c0.001 0 0.002 0 0.003 0 0.045 0 0.089-0.009 0.129-0.025l-0.003 0.001 2.137 2.136c0.075 0.077 0.181 0.125 0.296 0.125 0 0 0.001 0 0.001 0v0c0.106 0 0.213-0.039 0.296-0.117 0.075-0.073 0.122-0.175 0.122-0.288 0-0.003 0-0.006 0-0.009v0.001c0-0.11-0.046-0.22-0.122-0.298l-2.137-2.144c0.008-0.040 0.023-0.078 0.023-0.125v-1.276c0-0.003 0-0.005 0-0.008 0-0.202-0.085-0.385-0.22-0.515h-0l-2.767-2.739-0.413 1.815-1.794 0.426 2.645 2.822zM2.52 3.697l0.887-0.244 0.238-0.872 1.712 1.721v1.135h-1.149l-1.688-1.74zM8.030 1.602c3.591 0 6.519 2.864 6.519 6.382 0 3.526-2.928 6.39-6.519 6.39-3.599 0-6.519-2.864-6.519-6.39 0-0.931 0.206-1.847 0.618-2.702l0.060-0.123 0.1 0.1 0.48 0.477 0.054 0.047-0.031 0.061c-0.28 0.628-0.442 1.361-0.442 2.132 0 0.005 0 0.011 0 0.017v-0.001c0 3.064 2.554 5.558 5.688 5.558s5.68-2.494 5.68-5.558-2.547-5.558-5.68-5.558c-0.755 0-1.495 0.146-2.196 0.43l-0.061 0.024-0.046-0.046-0.48-0.47-0.107-0.1 0.13-0.061c0.803-0.385 1.745-0.609 2.739-0.609 0.005 0 0.009 0 0.014 0h-0.001zM5.255 6.73l-0.045 0.11c-0.125 0.3-0.198 0.647-0.198 1.012 0 0.002 0 0.003 0 0.005v0c0 1.542 1.302 2.79 2.892 2.79s2.887-1.248 2.887-2.79c0-1.535-1.296-2.789-2.887-2.789-0.359 0-0.712 0.064-1.052 0.192l-0.115 0.045v-0.584c0-0.013-0.006-0.032-0.006-0.051-0.007-0.013-0.007-0.020-0.007-0.032l-0.006-0.070 0.064-0.020c0.333-0.109 0.718-0.173 1.116-0.173v0c1.982 0 3.592 1.561 3.592 3.48s-1.61 3.48-3.592 3.48-3.592-1.56-3.592-3.48c0-0.364 0.058-0.73 0.18-1.080l0.019-0.065 0.064 0.007c0.013 0.006 0.026 0.006 0.038 0.006 0.020 0.006 0.039 0.006 0.052 0.006h0.596z" />
</svg>
