<!-- Generated by IcoMoon.io -->
<svg version="1.1" xmlns="http://www.w3.org/2000/svg" width="16" height="16" viewBox="0 0 16 16">
<title>toastr-error</title>
<path fill="#d51f31" d="M8 0.074c4.37 0 7.926 3.555 7.926 7.926s-3.556 7.926-7.926 7.926c-4.37 0-7.926-3.556-7.926-7.926s3.555-7.926 7.926-7.926zM8 14.925c3.819 0 6.925-3.107 6.925-6.926s-3.107-6.926-6.926-6.926c-3.819 0-6.926 3.107-6.926 6.926s3.107 6.926 6.926 6.926zM10.967 5.032c0.126 0.125 0.196 0.295 0.196 0.471s-0.070 0.346-0.195 0.471l-2.024 2.025 2.024 2.024c0.261 0.261 0.261 0.683 0 0.943-0.124 0.126-0.294 0.196-0.472 0.196-0.171 0-0.341-0.065-0.472-0.195l-2.024-2.024-2.024 2.024c-0.125 0.126-0.294 0.195-0.471 0.195-0.17 0-0.341-0.065-0.471-0.195-0.261-0.259-0.261-0.682 0-0.943l2.024-2.024-2.024-2.024c-0.125-0.125-0.196-0.294-0.196-0.471 0-0.176 0.071-0.346 0.196-0.471 0.261-0.261 0.683-0.261 0.943 0l2.024 2.024 2.024-2.024c0.125-0.125 0.295-0.196 0.472-0.196s0.347 0.071 0.472 0.196z" />
</svg>
