<!-- Generated by IcoMoon.io -->
<svg version="1.1" xmlns="http://www.w3.org/2000/svg" width="16" height="16" viewBox="0 0 16 16">
<title>toastr-success</title>
<path fill="#006200" d="M8 0.074c4.37 0 7.926 3.555 7.926 7.926s-3.556 7.926-7.926 7.926c-4.37 0-7.926-3.556-7.926-7.926s3.555-7.926 7.926-7.926zM8 14.925c3.819 0 6.925-3.107 6.925-6.926s-3.107-6.926-6.926-6.926c-3.819 0-6.926 3.107-6.926 6.926s3.107 6.926 6.926 6.926zM11.223 5.577c0.125-0.125 0.294-0.196 0.472-0.196s0.347 0.070 0.472 0.196 0.196 0.294 0.196 0.471c0 0.176-0.071 0.346-0.195 0.471l-4.926 4.926c-0.125 0.124-0.294 0.195-0.471 0.195-0.176 0-0.346-0.070-0.471-0.195l-2.463-2.463c-0.26-0.261-0.26-0.683 0-0.944 0.261-0.26 0.683-0.26 0.944 0l1.991 1.992 4.454-4.454z" />
</svg>
