<!-- Generated by IcoMoon.io -->
<svg version="1.1" xmlns="http://www.w3.org/2000/svg" width="16" height="16" viewBox="0 0 16 16">
<title>toastr-info</title>
<path fill="#1677ff" d="M8 0.074c4.37 0 7.926 3.555 7.926 7.926s-3.556 7.926-7.926 7.926c-4.37 0-7.926-3.556-7.926-7.926s3.555-7.926 7.926-7.926zM8 14.925c3.819 0 6.925-3.107 6.925-6.926s-3.107-6.926-6.926-6.926c-3.819 0-6.926 3.107-6.926 6.926s3.107 6.926 6.926 6.926zM7.385 6.154h1.231v7.384h-1.231v-7.385zM8 4.923c0.509 0 0.923-0.413 0.923-0.923s-0.414-0.923-0.923-0.923-0.923 0.413-0.923 0.923 0.413 0.923 0.923 0.923z" />
</svg>
