<!-- Generated by IcoMoon.io -->
<svg version="1.1" xmlns="http://www.w3.org/2000/svg" width="16" height="16" viewBox="0 0 16 16">
<title>upload</title>
<path d="M6.25 4.964h1.155v5.286c0 0.069 0.056 0.125 0.125 0.125h0.938c0.069 0 0.125-0.056 0.125-0.125v-5.286h1.158c0.105 0 0.162-0.12 0.098-0.202l-1.75-2.216c-0.023-0.029-0.059-0.048-0.098-0.048s-0.075 0.019-0.098 0.048l-0 0-1.75 2.214c-0.064 0.083-0.006 0.203 0.098 0.203zM13.719 9.781h-0.938c-0.069 0-0.125 0.056-0.125 0.125v2.406h-9.313v-2.406c0-0.069-0.056-0.125-0.125-0.125h-0.938c-0.069 0-0.125 0.056-0.125 0.125v3.094c0 0.277 0.223 0.5 0.5 0.5h10.688c0.277 0 0.5-0.223 0.5-0.5v-3.094c0-0.069-0.056-0.125-0.125-0.125z"></path>
</svg>
