<!-- Generated by IcoMoon.io -->
<svg version="1.1" xmlns="http://www.w3.org/2000/svg" width="16" height="16" viewBox="0 0 16 16">
<title>wrench</title>
<path d="M16 5.272c0 0.005 0 0.010 0 0.014 0 1.452-0.59 2.765-1.544 3.715v0c-0.948 0.953-2.261 1.543-3.712 1.543-0.005 0-0.011 0-0.017 0h0.001c-0.55 0-1.080-0.085-1.579-0.242l-4.984 4.984c-0.952 0.952-2.5 0.952-3.451 0-0.441-0.442-0.713-1.052-0.713-1.725s0.273-1.283 0.713-1.725l4.984-4.986c-0.154-0.471-0.242-1.011-0.242-1.574 0-0.002 0-0.004 0-0.005v0c0-0.003 0-0.008 0-0.013 0-1.452 0.59-2.765 1.544-3.715v0c0.949-0.954 2.263-1.544 3.713-1.544 0.005 0 0.010 0 0.015 0h-0.001c0.875 0 1.743 0.22 2.51 0.634l0.58 0.316-4.308 4.309c-0.030 0.030-0.049 0.072-0.049 0.117s0.018 0.088 0.049 0.117l1.204 1.204c0.030 0.030 0.072 0.049 0.118 0.049s0.088-0.019 0.118-0.049l4.27-4.269 0.296 0.644c0.321 0.7 0.484 1.44 0.484 2.2zM10.728 9.558c1.144 0 2.22-0.446 3.030-1.255 0.776-0.771 1.256-1.84 1.256-3.020 0-0.394-0.053-0.775-0.153-1.137l0.007 0.030-3.22 3.22c-0.45 0.451-1.181 0.451-1.632 0l-1.204-1.202c-0.209-0.209-0.337-0.497-0.337-0.816s0.129-0.607 0.337-0.816l3.333-3.333c-0.422-0.152-0.909-0.24-1.417-0.24v0c-1.145 0-2.22 0.445-3.030 1.254-0.775 0.772-1.255 1.839-1.255 3.019 0 0.004 0 0.008 0 0.012v-0c0 1.126 0.44 2.148 1.151 2.913 0.443 0.459 0.986 0.818 1.593 1.043l0.030 0.009 0.636 0.229c0.288 0.060 0.581 0.090 0.875 0.090zM3.467 14.588l4.707-4.707c-0.604-0.341-1.115-0.772-1.532-1.284l-0.008-0.009c-0.189-0.22-0.364-0.463-0.519-0.72l-0.013-0.024-4.69 4.69c-0.262 0.264-0.424 0.627-0.424 1.027s0.162 0.764 0.424 1.027v0c0.263 0.262 0.627 0.425 1.027 0.425s0.764-0.162 1.027-0.425v0zM2.213 12.984c0.103-0.103 0.245-0.167 0.402-0.167s0.3 0.064 0.402 0.167v0c0.093 0.101 0.151 0.236 0.151 0.386 0 0.314-0.255 0.569-0.569 0.569-0.149 0-0.284-0.057-0.386-0.15l0.001 0.001c-0.103-0.103-0.167-0.245-0.167-0.402s0.063-0.299 0.167-0.402v0z" />
</svg>
